<?xml version="1.0" encoding="utf-8"?>
<svg version="1.1" xmlns="http://www.w3.org/2000/svg" viewBox="0 0 513 342">
<rect fill="#012169" width="513" height="342"/>
<g>
	<g>
		<path fill="#FFFFFF" d="M440.1,181.1c-0.1,39.2-6.4,81.4-57.4,101.5c-51.1-20.1-57.3-62.3-57.4-101.5H440.1L440.1,181.1z"/>
		<path fill="#1B81B6" d="M439.6,197.7c-2.8,34.9-12.4,67.4-57,85c-44.4-17.6-54.5-51.2-56.9-84.9"/>
		<path fill="#FFFFFF" d="M437.8,214.1c-3.2,24.3-16.7,53.5-55.1,68.6c-38.4-15.1-50.5-42.5-55.1-68.4"/>
		<path fill="#1B81B6" d="M434.2,230.3c-5.7,17.7-19.3,39.4-51.3,52.8c-32-12.6-45.2-33.8-51.4-53"/>
		<path fill="#FFFFFF" d="M426.7,246.9c-6.5,11.3-17.7,25.4-44,35.9c-27.5-11.5-37.4-25.3-44-36.1"/>
		<path fill="#1B81B6" d="M412.4,265.1c-8.1,7.2-12,11.2-29.6,17.9c-20.1-7.9-22.6-11.6-29.2-17.5"/>
		<path fill="#288549" d="M383.3,231.6c-0.2-0.2-27.9,35.7-27.9,35.7c-1.8-1.3-10-9.5-13.3-15l41.3-50.1l40.2,49.7
			c-3.9,6.5-11.4,13.6-13.2,15"/>
	</g>
	<polygon fill="#288549" points="382.6,85.3 356.1,130.3 409.1,130.3 409.1,130.3 	"/>
	<g fill="#F0955D">
		<path d="M275.9,223.6c3.6-26.7,13.5-47.3,22.1-46.2s12.6,23.7,9,50.4s-13.5,47.3-22.1,46.2
		C276.3,272.8,272.3,250.3,275.9,223.6z"/>
		<path d="M467.1,177.7c8.6-1.2,18.5,19.5,22.1,46.2s-0.4,49.2-9,50.4S461.7,254.7,458,228
		C454.4,201.4,458.5,178.8,467.1,177.7z"/>
	</g>
	<g fill="#EADFD5">
		<path d="M296.4,162c2.4-6,7.4-9.7,11-8.2c3.7,1.5,4.7,7.5,2.3,13.5s-7.4,9.7-11,8.2C295.1,174,294,168,296.4,162z"/>
		<path d="M288.4,271.2c0.9-6.2,3.1-11.1,4.9-10.8s2.5,5.5,1.6,11.8c-0.9,6.2-3.1,11.1-4.9,10.8S287.5,277.5,288.4,271.2
			z"/>
		<path d="M299,258.4c1.8-0.1,3.6,4.7,3.9,10.8s-0.9,11.1-2.7,11.2c-1.8,0.1-3.6-4.7-3.9-10.8
			C296,263.5,297.2,258.5,299,258.4z"/>
		<path d="M309.5,188.4c2.1-0.8,6.1,4.2,8.8,11.2c2.8,7,3.3,13.4,1.2,14.2c-2.1,0.8-6.1-4.2-8.8-11.2
			C307.9,195.6,307.4,189.2,309.5,188.4z"/>
		<path d="M316,174.3c7-2.8,13.4-3.3,14.2-1.2c0.8,2.1-4.2,6.1-11.2,8.8c-7,2.8-13.4,3.3-14.2,1.2
			C303.9,181,309,177.1,316,174.3z"/>
		<path d="M457.6,154.1c3.7-1.5,8.6,2.2,11,8.2c2.4,6,1.4,12.1-2.3,13.5c-3.7,1.5-8.6-2.2-11-8.2
			C452.9,161.6,454,155.5,457.6,154.1z"/>
		<path d="M471.8,260.6c1.8-0.3,4,4.6,4.9,10.8c0.9,6.2,0.2,11.5-1.6,11.8c-1.8,0.3-4-4.6-4.9-10.8
			C469.2,266.1,470,260.9,471.8,260.6z"/>
		<path d="M462.2,269.4c0.3-6.1,2.1-10.9,3.9-10.8c1.8,0.1,3,5.1,2.7,11.2c-0.3,6.1-2.1,10.9-3.9,10.8
			C463.1,280.5,461.9,275.5,462.2,269.4z"/>
		<path d="M446.7,199.7c2.8-7,6.7-12.1,8.8-11.2c2.1,0.8,1.6,7.2-1.2,14.2c-2.8,7-6.7,12.1-8.8,11.2
			S443.9,206.7,446.7,199.7z"/>
		<path d="M434.9,173.2c0.8-2.1,7.2-1.6,14.2,1.2c7,2.8,12.1,6.7,11.2,8.8c-0.8,2.1-7.2,1.6-14.2-1.2
			C439.1,179.3,434,175.3,434.9,173.2z"/>
	</g>
	<polygon fill="#B0C6CC" points="373.3,130.3 356.1,155 373.9,181.1 396,181.1 400.7,155.7 395.3,130.3 	"/>
</g>
<g>
	<rect fill="#012169" width="256.5" height="171"/>
	<g fill="#FFFFFF">
		<polygon points="256.5,0 256.5,30.6 211.2,55.8 256.5,55.8 256.5,115.2 197.3,115.2 256.5,148.1 256.5,171 229.8,171
			156.1,130.1 156.1,171 100.4,171 100.4,122.3 12.8,171 0,171 0,140.4 45.3,115.2 0,115.2 0,55.8 59.2,55.8 0,22.9 0,0 26.7,0
			100.4,40.9 100.4,0 156.1,0 156.1,48.7 243.7,0 		"/>
		<polygon points="156.1,115.2 256.5,171 256.5,155.2 184.5,115.2 		"/>
		<polygon points="100.4,55.8 0,0 0,15.8 72,55.8 		"/>
	</g>
	<g fill="#D80027">
		<polygon points="144.3,0 112.2,0 112.2,69.5 0,69.5 0,101.5 112.2,101.5 112.2,171 144.3,171 144.3,101.5
			256.5,101.5 256.5,69.5 144.3,69.5 		"/>
		<polygon points="156.1,115.2 256.5,171 256.5,155.2 184.5,115.2 		"/>
		<polygon points="72,115.2 0,155.2 0,171 0,171 100.4,115.2 		"/>
		<polygon points="100.4,55.8 0,0 0,15.8 72,55.8 		"/>
		<polygon points="184.5,55.8 256.5,15.8 256.5,0 256.5,0 156.1,55.8 		"/>
	</g>
</g>
</svg>
