<?xml version="1.0" encoding="utf-8"?>
<svg version="1.1" xmlns="http://www.w3.org/2000/svg" viewBox="0 0 513 342">
<rect y="0" fill="#012169" width="513" height="342"/>
<g>
	<path fill="#FFFFFF" d="M454.8,265.38c7.94-10.93,13.24-24.27,13.24-40.42V104.89c-10.04,7.54-22.5,12.01-36.02,12.01
		c-19.64,0-37.07-9.43-48.03-24.01c-10.95,14.58-28.39,24.01-48.03,24.01c-13.52,0-25.99-4.47-36.02-12v120.06
		c0,16.16,5.3,29.5,13.24,40.42L454.8,265.38L454.8,265.38z"/>
	<path fill="#99ccff" d="M310.23,260.98C332.65,296.96,384,309,384,309s51.35-12.04,73.77-48.02H310.23L310.23,260.98z"/>
	<g fill="#ff9900">
		<path d="M396.66,172.21c0.32,1.42,8.72,10.17,17.56,20.15c1.39,1.57-8.74,12.63-6.91,12.59
			c4.75-0.12,19.27-17.26,19.34,6.65c0.05,15.94-30,27.51-30,27.51h17.47l0.65,14.96c0,0,4.97-13.34,7.59-16.57
			c8.1-9.97,20.18-30.07,34.59-27.1c14.41,2.97-13.66-13.92-13.66-13.92s-5.2-15.19-16.63-16.97c-10.06-1.57-14.29-2.51-26.64-7.3
			C398.34,171.56,396.14,169.89,396.66,172.21z"/>
		<path d="M359.69,198.69c1.07-0.99,4.46-12.63,8.69-25.28c0.67-1.99,15.31,1.27,14.35-0.3
			c-2.47-4.06-24.58-8.08-3.9-20.08c13.79-8,38.82,12.27,38.82,12.27l-8.72-15.14l12.64-8.03c0,0-14.05,2.35-18.14,1.69
			c-12.68-2.04-36.13-2.48-40.75-16.45c-4.62-13.97-5.25,18.79-5.25,18.79s-10.56,12.08-6.4,22.88c3.66,9.5,4.96,13.64,6.97,26.73
			C358.29,197.56,357.94,200.3,359.69,198.69z"/>
		<path d="M395.67,219.87c-1.39-0.43-13.16,2.49-26.22,5.18c-2.06,0.42-6.59-13.88-7.47-12.26
			c-2.27,4.17,5.36,25.31-15.41,13.45c-13.84-7.91-8.89-39.73-8.89-39.73l-8.71,15.14l-13.29-6.9c0,0,9.09,10.96,10.57,14.84
			c4.6,11.99,16,32.49,6.24,43.49c-9.76,11.01,18.88-4.9,18.88-4.9s15.76,3.07,23-5.96c6.38-7.94,9.3-11.14,19.61-19.45
			C395.41,221.65,397.95,220.58,395.67,219.87z"/>
	</g>
</g>
<g>
	<rect fill="#012169" width="256.5" height="171"/>
	<g fill="#FFFFFF">
		<polygon points="256.5,0 256.5,30.6 211.2,55.8 256.5,55.8 256.5,115.2 197.3,115.2 256.5,148.1 256.5,171 229.8,171
			156.1,130.1 156.1,171 100.4,171 100.4,122.3 12.8,171 0,171 0,140.4 45.3,115.2 0,115.2 0,55.8 59.2,55.8 0,22.9 0,0 26.7,0
			100.4,40.9 100.4,0 156.1,0 156.1,48.7 243.7,0 "/>
		<polygon points="156.1,115.2 256.5,171 256.5,155.2 184.5,115.2 "/>
		<polygon points="100.4,55.8 0,0 0,15.8 72,55.8 "/>
	</g>
	<g fill="#D80027">
		<polygon points="144.3,0 112.2,0 112.2,69.5 0,69.5 0,101.5 112.2,101.5 112.2,171 144.3,171 144.3,101.5 256.5,101.5
			256.5,69.5 144.3,69.5 "/>
		<polygon points="156.1,115.2 256.5,171 256.5,155.2 184.5,115.2 	"/>
		<polygon points="72,115.2 0,155.2 0,171 0,171 100.4,115.2 	"/>
		<polygon points="100.4,55.8 0,0 0,15.8 72,55.8 	"/>
		<polygon points="184.5,55.8 256.5,15.8 256.5,0 256.5,0 156.1,55.8 	"/>
	</g>
</g>
</svg>
