<?xml version="1.0" encoding="utf-8"?>
<svg version="1.1" xmlns="http://www.w3.org/2000/svg" viewBox="0 0 513 342">
<rect fill="#00008b" width="513" height="342"/>
<g fill="#FFFFFF">
	<polygon points="188,212.6 199,235.5 223.7,229.8 212.7,252.6 232.6,268.4 207.8,274 207.9,299.4 188,283.5
		168.2,299.4 168.3,274 143.5,268.4 163.4,252.6 152.3,229.8 177.1,235.5 	"/>
	<polygon points="385.9,241.1 391.1,252 402.9,249.3 397.6,260.2 407.1,267.7 395.3,270.3 395.3,282.5 385.9,274.9
		376.4,282.5 376.5,270.3 364.7,267.7 374.2,260.2 368.9,249.3 380.7,252 	"/>
	<polygon points="337.3,125.1 342.5,136 354.3,133.3 349,144.2 358.5,151.7 346.7,154.4 346.7,166.5 337.3,158.9
		327.8,166.5 327.9,154.4 316,151.7 325.5,144.2 320.2,133.3 332,136 	"/>
	<polygon points="385.9,58.9 391.1,69.8 402.9,67.1 397.6,78 407.1,85.5 395.3,88.2 395.3,100.3 385.9,92.7
		376.4,100.3 376.5,88.2 364.7,85.5 374.2,78 368.9,67.1 380.7,69.8 	"/>
	<polygon points="428.4,108.6 433.6,119.5 445.4,116.8 440.1,127.7 449.6,135.2 437.8,137.8 437.8,150 428.4,142.4
		418.9,150 418.9,137.8 407.1,135.2 416.6,127.7 411.3,116.8 423.1,119.5 	"/>
	<polygon points="398,166.5 402.1,179.2 415.4,179.2 404.6,187 408.8,199.7 398,191.8 387.2,199.7 391.3,187
		380.6,179.2 393.9,179.2 	"/>
</g>
<g>
	<rect fill="#00008b" width="256.5" height="171"/>
	<g fill="#FFFFFF">
		<polygon points="256.5,0 256.5,30.6 211.2,55.8 256.5,55.8 256.5,115.2 197.3,115.2 256.5,148.1 256.5,171 229.8,171
			156.1,130.1 156.1,171 100.4,171 100.4,122.3 12.8,171 0,171 0,140.4 45.3,115.2 0,115.2 0,55.8 59.2,55.8 0,22.9 0,0 26.7,0
			100.4,40.9 100.4,0 156.1,0 156.1,48.7 243.7,0 "/>
		<polygon points="156.1,115.2 256.5,171 256.5,155.2 184.5,115.2 "/>
		<polygon points="100.4,55.8 0,0 0,15.8 72,55.8 "/>
	</g>
	<g fill="#ff0000">
		<polygon points="144.3,0 112.2,0 112.2,69.5 0,69.5 0,101.5 112.2,101.5 112.2,171 144.3,171 144.3,101.5 256.5,101.5
			256.5,69.5 144.3,69.5 "/>
		<polygon points="156.1,115.2 256.5,171 256.5,155.2 184.5,115.2 	"/>
		<polygon points="72,115.2 0,155.2 0,171 0,171 100.4,115.2 	"/>
		<polygon points="100.4,55.8 0,0 0,15.8 72,55.8 	"/>
		<polygon points="184.5,55.8 256.5,15.8 256.5,0 256.5,0 156.1,55.8 	"/>
	</g>
</g>
</svg>
