<?xml version="1.0" encoding="utf-8"?>
<svg version="1.1" xmlns="http://www.w3.org/2000/svg" viewBox="0 0 513 342">
<rect fill="#FFFFFF" width="513" height="342"/>
<path fill="#FFFFFF" d="M0-75.8"/>
<g fill="#E6BC00">
	<path d="M157.3,199.8c0,0-9,43.9-19.3,40.4c-10.6-3.5-17.5-18.8-17.5-18.8l-14.5,21.2c0,0,38.2,8.5,41,5.5
		c1.2-1.1,8.2-15.1,10.3-26.1L157.3,199.8L157.3,199.8z M101.2,260.3c0,0-2.5,20.2-1.1,22.7c1.2,2.3,39.5,11.3,39.5,11.3
		s-25,16.5-29.7,20.5l-18.1-29.9l-0.7-24.6L101.2,260.3L101.2,260.3z"/>
	<path d="M0-75.8"/>
	<path d="M112.5,94.6c0,0,39.7,41.6,40.4,45.5c0.7,3.7-4.2,3.2-4.2,3.2s-44.8-37.5-49.9-41.1
		C93.4,98.7,112.5,94.6,112.5,94.6L112.5,94.6z"/>
	<path d="M359.2,201.3c0,0,9,42.4,19.2,38.9c10.6-3.5,17.5-18.8,17.5-18.8l14.5,21.2c0,0-37,8.5-39.8,5.5
		c-1.2-1.1-9.3-13.8-11.5-24.7L359.2,201.3z M415.2,260.3c0,0,2.5,20.2,1.1,22.7c-1.2,2.3-39.5,11.3-39.5,11.3s25,16.5,29.7,20.5
		l18.1-29.9l0.7-24.6L415.2,260.3L415.2,260.3z"/>
	<path d="M403.9,94.6c0,0-39.6,41.6-40.4,45.5c-0.7,3.7,4.2,3.2,4.2,3.2s44.8-37.5,49.9-41.1
		C422.8,98.7,403.9,94.6,403.9,94.6L403.9,94.6z"/>
</g>
<g fill="#ADADAD">
	<path d="M99.4,104.7c0,0,17-0.7,16.6-11.5c-0.4-10.6-11.2-14.9-19.1-12.4c-8,2.3-23,13.4-13.6,35.1
		c9.4,21.4,23.4,29.4,26.2,47.8c0,0-5.5,9.9-19.1,0.4c-16.9-11.8-6.2-38.2-10.4-45c-4.2-7.1-41-38.9-41-38.9s-30.2,39.4-18,74.9
		c17,49.2,51.7,32,64.6,36.8c0,0-42.1,62-49.6,67.1c0,0,24.1,8.3,47.8-18.8c0,0,5.8,9.7,7.1,20.2h10.3c4.8-26.2,51.5-64.3,49.9-82.3
		C149.3,156.8,101.9,128.6,99.4,104.7z"/>
	<path d="M365.1,178c-1.6,18.1,45.1,56.1,49.9,82.3h10.3c1.2-10.4,7.1-20.2,7.1-20.2c23.7,27.1,47.8,18.8,47.8,18.8
		c-7.4-5.1-49.6-67.1-49.6-67.1c12.9-4.8,47.7,12.4,64.6-36.8c12.2-35.6-18-74.9-18-74.9s-36.7,31.8-41,38.9
		c-4.2,6.7,6.5,33.2-10.4,45c-13.7,9.5-19.1-0.4-19.1-0.4c2.8-18.4,16.8-26.4,26.2-47.8c9.4-21.6-5.7-32.8-13.6-35.1
		c-8-2.5-18.8,1.8-19.1,12.4c-0.4,10.8,16.6,11.5,16.6,11.5C414.3,128.6,366.9,156.8,365.1,178z"/>
</g>
<path fill="#125ECC" d="M157.3,87.1h201.8v145.5c0,16.1-9.7,21.4-21.9,31.8l-45.9,39.4c-18.2,15.6-47.9,15.6-66.1,0l-46-39.4
	c-12.1-10.4-21.9-15.7-21.9-31.8L157.3,87.1L157.3,87.1z"/>
<path fill="#FFE600" d="M200.6,147.7c-8,0-14.4-6.4-14.4-14.4s6.4-14.4,14.4-14.4s14.4,6.4,14.4,14.4S208.5,147.7,200.6,147.7z
	 M258.2,144.7c-8,0-14.4-6.4-14.4-14.4s6.4-14.4,14.4-14.4c8,0,14.4,6.4,14.4,14.4C272.6,138.3,266.2,144.7,258.2,144.7z
	 M315.9,147.7c-8,0-14.4-6.4-14.4-14.4s6.5-14.4,14.4-14.4s14.4,6.4,14.4,14.4S323.8,147.7,315.9,147.7z M215,274.4
	c-8,0-14.4-6.5-14.4-14.4c0-8,6.4-14.4,14.4-14.4s14.4,6.4,14.4,14.4C229.4,268,222.9,274.4,215,274.4z M258.2,288.9
	c-8,0-14.4-6.5-14.4-14.4s6.4-14.4,14.4-14.4c8,0,14.4,6.5,14.4,14.4C272.6,282.4,266.2,288.9,258.2,288.9z M301.4,274.4
	c-8,0-14.4-6.5-14.4-14.4c0-8,6.5-14.4,14.4-14.4s14.4,6.4,14.4,14.4C315.9,268,309.4,274.4,301.4,274.4z"/>
<path fill="#D60537" d="M157.3,175.4h201.8V233H157.3V175.4z"/>
<path fill="#EACE00" d="M142.9,43.8c0,0,57.6-14.4,115.3-14.4s115.3,14.4,115.3,14.4l-14.4,57.7c0,0-50.5-14.4-100.9-14.4
	s-100.9,14.4-100.9,14.4L142.9,43.8z"/>
<path fill="#7A6920" d="M258.2,72.7c-8,0-14.4-6.4-14.4-14.4s6.4-14.4,14.4-14.4c8,0,14.4,6.5,14.4,14.4S266.2,72.7,258.2,72.7z
	 M315.9,77.7c-8,0-14.4-6.4-14.4-14.4s6.5-14.4,14.4-14.4s14.4,6.5,14.4,14.4S323.8,77.7,315.9,77.7z M200.6,77.7
	c-8,0-14.4-6.4-14.4-14.4s6.4-14.4,14.4-14.4S215,55.3,215,63.2S208.5,77.7,200.6,77.7z"/>
<circle fill="#FFFFFF" cx="258.2" cy="204.2" r="16.9"/>
</svg>
