<?xml version="1.0" encoding="utf-8"?>
<svg version="1.1" xmlns="http://www.w3.org/2000/svg" viewBox="0 0 513 342">
<rect y="0" fill="#c8102e" width="513" height="342"/>
<g>
	<path fill="#ffffff" stroke="#000000" stroke-width="2" d="M303.9,94.94v99.69c0,59.81,79.75,99.69,79.75,99.69s79.75-39.88,79.75-99.69V94.94H303.9z"/>
	<path fill="#2F8F22" d="M436.37,254.44H330.93c23.13,25.08,52.72,39.88,52.72,39.88S413.24,279.52,436.37,254.44z"/>
	<circle fill="#65B5D2" cx="383.65" cy="214.56" r="39.88"/>
	<circle fill="#c8102e" cx="343.77" cy="194.63" r="19.94"/>
	<circle fill="#c8102e" cx="423.52" cy="194.63" r="19.94"/>
	<circle fill="#c8102e" cx="383.65" cy="154.75" r="19.94"/>
</g>
<g>
	<rect fill="#012169" width="256.5" height="171"/>
	<g fill="#FFFFFF">
		<polygon points="256.5,0 256.5,30.6 211.2,55.8 256.5,55.8 256.5,115.2 197.3,115.2 256.5,148.1 256.5,171 229.8,171
			156.1,130.1 156.1,171 100.4,171 100.4,122.3 12.8,171 0,171 0,140.4 45.3,115.2 0,115.2 0,55.8 59.2,55.8 0,22.9 0,0 26.7,0
			100.4,40.9 100.4,0 156.1,0 156.1,48.7 243.7,0 "/>
		<polygon points="156.1,115.2 256.5,171 256.5,155.2 184.5,115.2 "/>
		<polygon points="100.4,55.8 0,0 0,15.8 72,55.8 "/>
	</g>
	<g fill="#c8102e">
		<polygon points="144.3,0 112.2,0 112.2,69.5 0,69.5 0,101.5 112.2,101.5 112.2,171 144.3,171 144.3,101.5 256.5,101.5
			256.5,69.5 144.3,69.5 "/>
		<polygon points="156.1,115.2 256.5,171 256.5,155.2 184.5,115.2 	"/>
		<polygon points="72,115.2 0,155.2 0,171 0,171 100.4,115.2 	"/>
		<polygon points="100.4,55.8 0,0 0,15.8 72,55.8 	"/>
		<polygon points="184.5,55.8 256.5,15.8 256.5,0 256.5,0 156.1,55.8 	"/>
	</g>
</g>
</svg>
