<?xml version="1.0" encoding="UTF-8" standalone="no"?>
<svg xmlns="http://www.w3.org/2000/svg" width="900" height="600">
<path d="M0,0H900V600H0z" fill="#dc171d"/>
<path d="M450,168.787 215.691,300 450,431.213 684.309,300z" fill="#fff"/>
<path d="M281.47724,336.8521V376H351.43825L642.16495,323.60067V376H548.4965z" fill="#dc171f"/>
<g fill="#012a87">
<path d="M188,288H20V20H438V148z"/>
<path d="M712,288H880V20H462V148z"/>
<path d="M188,312H20V580H438V452z"/>
<path d="M712,312H880V580H462V452z"/>
</g>
<path d="M450,199.5 458.06775,224.32679 484.17253,224.32778 463.0539,239.67258 471.11978,264.5 450,249.1568 428.88022,264.5 436.9461,239.67258 415.82747,224.32778 441.93225,224.32679z" fill="#f9d90f"/>
<path d="M281.47724,336.8521C284.18855,328.00387 290.09144,324.08283 298.07143,325.85714C303.01016,307.12642 325.80952,303.78608 334.85714,313L357.12974,335.37026C361.96744,337.621 369.33723,338.46502 374.45628,338.46502C380.78535,338.56451 380.07746,341.47038 385.36589,341.57143C399.46229,341.84079 436.50867,342.02913 443.22303,341.57143C445.97213,341.38403 507.35714,273.71429 507.35714,273.71429C512.47619,267.40477 525.80952,265.38095 533.07143,270.5C539.85715,276.92857 547,277.64286 552,273.35714C556.40476,266.80952 566.39214,266.04804 572.71428,269.78571L642.16495,323.60067L548.4965,376H351.43825L281.47724,336.8521z" fill="#008830"/>
</svg>
