<?xml version="1.0" encoding="utf-8"?>
<svg version="1.1" xmlns="http://www.w3.org/2000/svg" viewBox="0 0 513 342">
<rect fill="#012169" y="0" width="513" height="342"/>
<g fill="#FFFFFF">
	<polygon points="384,71.4 389.3,87.6 406.4,87.6 392.5,97.7 397.8,113.9 384,103.9 370.2,113.9 375.5,97.7 361.6,87.6
		378.7,87.6 	"/>
	<polygon points="313.8,100.5 329,108.2 341.1,96.1 338.4,113 353.7,120.8 336.8,123.4 334.1,140.3 326.3,125.1
		309.5,127.8 321.6,115.7 	"/>
	<polygon points="284.7,170.7 301,165.4 301,148.3 311,162.1 327.3,156.8 317.2,170.7 327.3,184.5 311,179.2 301,193
		301,175.9 	"/>
	<polygon points="313.8,240.9 321.5,225.6 309.5,213.6 326.3,216.2 334.1,201 336.8,217.9 353.7,220.6 338.4,228.3
		341.1,245.2 329,233.1 	"/>
	<polygon points="384,270 378.7,253.7 361.6,253.7 375.5,243.7 370.2,227.4 384,237.4 397.8,227.4 392.5,243.7
		406.4,253.7 389.3,253.7 	"/>
	<polygon points="454.2,240.9 439,233.1 426.9,245.2 429.6,228.3 414.3,220.6 431.2,217.9 433.9,201 441.7,216.2
		458.5,213.6 446.4,225.6 	"/>
	<polygon points="483.3,170.7 467,175.9 467,193 457,179.2 440.7,184.5 450.8,170.7 440.7,156.8 457,162.1 467,148.3
		467,165.4 	"/>
	<polygon points="454.2,100.5 446.5,115.7 458.5,127.8 441.7,125.1 433.9,140.3 431.2,123.4 414.3,120.8 429.6,113
		426.9,96.1 439,108.2 	"/>
</g>
<g>
	<rect fill="#012169" width="256.5" height="171"/>
	<g fill="#FFFFFF">
		<polygon points="256.5,0 256.5,30.6 211.2,55.8 256.5,55.8 256.5,115.2 197.3,115.2 256.5,148.1 256.5,171 229.8,171
			156.1,130.1 156.1,171 100.4,171 100.4,122.3 12.8,171 0,171 0,140.4 45.3,115.2 0,115.2 0,55.8 59.2,55.8 0,22.9 0,0 26.7,0
			100.4,40.9 100.4,0 156.1,0 156.1,48.7 243.7,0 "/>
		<polygon points="156.1,115.2 256.5,171 256.5,155.2 184.5,115.2 "/>
		<polygon points="100.4,55.8 0,0 0,15.8 72,55.8 "/>
	</g>
	<g fill="#D80027">
		<polygon points="144.3,0 112.2,0 112.2,69.5 0,69.5 0,101.5 112.2,101.5 112.2,171 144.3,171 144.3,101.5 256.5,101.5
			256.5,69.5 144.3,69.5 "/>
		<polygon points="156.1,115.2 256.5,171 256.5,155.2 184.5,115.2 	"/>
		<polygon points="72,115.2 0,155.2 0,171 0,171 100.4,115.2 	"/>
		<polygon points="100.4,55.8 0,0 0,15.8 72,55.8 	"/>
		<polygon points="184.5,55.8 256.5,15.8 256.5,0 256.5,0 156.1,55.8 	"/>
	</g>
</g>
</svg>
