<?xml version="1.0" encoding="utf-8"?>
<svg version="1.1" xmlns="http://www.w3.org/2000/svg" viewBox="0 0 513 342">
<rect fill="#012169" width="513" height="342"/>

<g>
	<rect fill="#012169" width="256.5" height="171"/>
	<g fill="#FFFFFF">
		<polygon points="256.5,0 256.5,30.6 211.2,55.8 256.5,55.8 256.5,115.2 197.3,115.2 256.5,148.1 256.5,171 229.8,171
			156.1,130.1 156.1,171 100.4,171 100.4,122.3 12.8,171 0,171 0,140.4 45.3,115.2 0,115.2 0,55.8 59.2,55.8 0,22.9 0,0 26.7,0
			100.4,40.9 100.4,0 156.1,0 156.1,48.7 243.7,0 "/>
		<polygon points="156.1,115.2 256.5,171 256.5,155.2 184.5,115.2 "/>
		<polygon points="100.4,55.8 0,0 0,15.8 72,55.8 "/>
	</g>
	<g fill="#D80027">
		<polygon points="144.3,0 112.2,0 112.2,69.5 0,69.5 0,101.5 112.2,101.5 112.2,171 144.3,171 144.3,101.5 256.5,101.5
			256.5,69.5 144.3,69.5 "/>
		<polygon points="156.1,115.2 256.5,171 256.5,155.2 184.5,115.2 	"/>
		<polygon points="72,115.2 0,155.2 0,171 0,171 100.4,115.2 	"/>
		<polygon points="100.4,55.8 0,0 0,15.8 72,55.8 	"/>
		<polygon points="184.5,55.8 256.5,15.8 256.5,0 256.5,0 156.1,55.8 	"/>
	</g>
</g>

<g>
	<path fill="#2a7fff" d="M311.2,190.2v-90c0-8.5,6.5-15.3,15-15.3h120.5c8.3,0,15,6.8,15,15.3v90c0,75.2-75.2,105.3-75.2,105.3
		S311.2,265.4,311.2,190.2z"/>
	<path fill="#FFFFFF" d="M311.2,190.2v-90c0-8.5,6.5-15.3,15-15.3h120.5c8.3,0,15,6.8,15,15.3v90c0,75.2-75.2,105.3-75.2,105.3
		S311.2,265.4,311.2,190.2z M390.8,276.5c7.9-4.5,15.9-10,23.2-16.7c20.5-18.5,32.6-41.4,32.6-69.7v-90c0-0.3-120.4-0.3-120.4-0.3
		v90.3c0,28.3,12.1,51.2,32.6,69.7c8.3,7.5,17.6,13.9,27.6,19C387.8,278.2,389.2,277.4,390.8,276.5z"/>
	<path fill="#3e6d1e" d="M346.1,189.4c-2.6-7.9,1.7-14.3,10.1-14.3h60.5c8.2,0,12.8,6.3,10.1,14.3l-5.5,16.5c-2.6,7.9-8.9,9.2-15.8,4
		c0,0,2.6-4.8-19.1-4.8s-19.1,4.8-19.1,4.8c-6.1,5.7-13.1,4-15.8-4C351.6,206,346.1,189.4,346.1,189.4z"/>
	<path fill="#e5e5e5" d="M356.4,175.1c8.1,1.6,17.8-15,30.1-15c13.1,0,21.8,17.1,30.1,15c7.4-1.8,15-22.2,15-30.1
		c0-16.6-20.2-30.1-45.1-30.1s-45.1,13.5-45.1,30.1C341.3,153.5,348,173.5,356.4,175.1z"/>
	<path fill="#FFFFFF" d="M355,266.7c6.2,0.4,12.5-1.8,17.2-6.5l9-9c2.9-2.9,7.5-2.9,10.4,0l0,0l9,9c4.7,4.7,11,6.9,17.1,6.5
		c5.3-0.3,32.5-33.5,25.7-32.6c-4.6,0.6-9.1,2.8-12.7,6.3c0,0,0,0-0.1,0.1l-9,9c-2.9,2.9-7.5,2.9-10.4,0l0,0l-9-9
		c-8.7-8.8-22.9-8.8-31.7-0.1c0,0,0,0-0.1,0.1l-9,9c-2.9,2.9-7.5,2.9-10.4,0l0,0l-9-9c-3.5-3.5-7.8-5.6-12.3-6.3
		C323,233.1,349.8,266.4,355,266.7z M321.1,206c2.9-2.9,7.5-2.9,10.4,0l0,0l9,9c8.8,8.7,22.9,8.7,31.7,0l9-9c2.9-2.9,7.5-2.9,10.4,0
		l0,0l9,9c8.8,8.7,22.9,8.7,31.7,0l9-9c2.9-2.9,7.5-2.9,10.4,0l0,0c0,0,5.5-14.8,2.5-15.9c-7.9-2.9-17.2-1.2-23.5,5.2
		c0,0,0,0-0.1,0.1l-9,9c-2.9,2.9-7.5,2.9-10.4,0l0,0l-9-9c-8.7-8.8-22.9-8.8-31.7-0.1c0,0,0,0-0.1,0.1l-9,9c-2.9,2.9-7.5,2.9-10.4,0
		l0,0l-9-9c-6.2-6.2-15.1-8-22.8-5.5C316.1,191,321.1,206,321.1,206z"/>
</g>
</svg>
