<?xml version="1.0" encoding="utf-8"?>
<svg version="1.1" xmlns="http://www.w3.org/2000/svg" xmlns:xlink="http://www.w3.org/1999/xlink"
	 viewBox="0 0 513 342">
	<rect width="513" height="342" fill="#FFFFFF"/>
	<rect y="136" width="513" height="70" fill="#D80027"/>
	<rect x="221.5" width="70" height="342" fill="#D80027"/>
	<path fill="#FFFFFF" stroke="#231F20" stroke-width="1" stroke-miterlimit="10" d="M256.5,87.8l-24,41.4h-48.8l24.7,42.1l-24.7,42.1h48.8l24,42.1l24-42.1h48.8l-24.7-42.1l24.7-42.1h-48.8
	L256.5,87.8z"/>
	<path fill="#D80027" d="M258.6,130.6c-3.3,0-3.3,3.3-3.3,3.3V160h-2v-22c0,0,0-4-3.3-4c-4,0-4,4-4,4v23.4l-2,0.7v-16.7c0,0,0-4-3.3-4
	c-4,0-4,4-4,4V174c0,6.7,3.3,13.4,8,17.4v14h24V194c6-3.3,10.7-9.4,12-16.7c0-4,1.3-7.3,2.7-10.7l2.7-9.4c0,0,0.7-3.3-2.7-4.7
	s-4.7,2-4.7,2l-5.3,12.7h-2v-31.4c0,0,0-3.3-3.3-3.3c-4,0-4,3.3-4,3.3v24h-1.3v-26.1C262.6,133.9,262.6,130.6,258.6,130.6z"/>
	<path fill="#FFDA44" stroke="#231F20" stroke-width="1" stroke-miterlimit="10" d="M249.2,25.7V33h-7.3v14.7h7.3v14c-4-4-9.4-6-14.7-6c-12.2-0.1-22.1,9.6-22.3,21.8c-0.1,6.1,2.4,12,6.9,16.3
	v13.4h74.8V93.8c4-4.7,6.7-10,6.7-16c-0.2-12.2-10.3-21.9-22.4-21.6c-5.3,0.1-10.4,2.1-14.3,5.6v-14h7.3V33.1h-7.3v-7.3L249.2,25.7
	L249.2,25.7z"/>
</svg>