<?xml version="1.0" encoding="utf-8"?>
<svg version="1.1" xmlns="http://www.w3.org/2000/svg" xmlns:xlink="http://www.w3.org/1999/xlink"
	 viewBox="0 0 513 342">
<rect fill="#FFFFFF" width="513" height="171"/>
<rect y="171" fill="#529E3C" width="513" height="171"/>
<path fill="#D11C1C" d="M201,259.8l28.2-4.8l-21.8-10.3l14.9-8.4c0,0,25.2,21.2,25.2,14.4
	c0-7.3,23.7-4.1,22.7-14.4c-1.3-14.1-26.2-1-30.6-18.7c-2.5-9.9-10.3-8.6-10.3-8.6l-25.1,8.6l-12.5,18.7l-6.2-18.7
	c0,0-14.6,11.9-19.5,18.7c-5.2,7.3-10.7,23.5-10.7,23.5l25.6,10.7l-37.3-6.6l-27.2,6.6l-16.7,4.6l7.3-7.7l-15-7.6l15-9l-7.3-6.1
	l32.3,6.1c0,0,11.8-1.2,16.3-6.1c5.6-6.2,10.1-27.1,10.1-27.1l-14.8-8.6l-11.6,21c0,0-8-19.9-15.6-31c-5.7-8.3-24.3-27.3-24.3-27.3
	l-24,12.6l13.4-26.7c0,0,10.6-9.3,3.9-18.8c-6.8-9.5-12.4-30.9-12.4-30.9s14.1,24.4,19.2,22.5c7.2-2.7-9-25,0-28.9
	c6.5-2.9,7.6,25.5,7.6,25.5l7.3-13.9v17.3c0,0-4.3,20.7,3,33c7.2,12.3,28.7,20.9,28.7,20.9s-5.6-12.3,0-36
	c3.8-16,17.2-43.4,23.6-52.1c3.3-4.6-26.7,17-26.7,17v-17l-28.6-2.9l-7.3,8.3l-18.3-30L104,83.1h34.6l-6.7-8.3H104
	c0,0,5.9-12.1,34.6-12.1l13.6-9.2c0,0,18.6,0.5,29,0.9c9.3,0.4,26.1-11.5,26.1-11.5l4.7,11.5L201,71.7l11.1,11.4l-4.7,7l8.1,11.5
	H201l11.1,17.9l-11.1-6.3l6.4,17.3l-6.4,17.8l28.2-9.5c0,0,0-25.6,10.3-37.2C271.1,69.2,322.6,43,322.6,43s-2.7,23.5,4.9,25.4
	c11.1,2.7,59.4-19.4,59.4-19.4s-29,31.3-23.1,34.1c3.2,1.5,8.5,7,8.5,7s-25.1,20.5-29.3,29.3c-4.2,8.8,6.1,19.4,6.1,19.4
	s-21.7,0-32.5,9.5c32.5,0,59.1,15.4,74.8,4c10.5-7.6-37.7-2.9-31.4-21.9c2.4-7.1,8.5-15.2,22.6-17.3s19.1,6.3,19.1,6.3l7.6-11.5
	h-22.4l40.6-39.6l5.3,51.1L419.1,108l-6.2,19.2c14.6,44.6-52.8,54.1-52.8,54.1l41.6,27.8l-14.8,4.2l-4.2,41.7l19.1,15.5l-25-6.6
	l-49.2,11.2l9.8-15.3l-20.6,4.1l13.7-13.1l-13.7-6.1l17.6-4.9l22.1,15.2c0,0,11-14.2,12.2-21.7c1.3-7.8-4.8-24.2-4.8-24.2
	s-32.6-0.7-44.1-3.5s-18.2-11.9-18.2-11.9l-13.1,15.4c0,0,45.5,17.1,34.1,24.2c-2.6,1.7-15.7-3.2-15.7-3.2s-22.4,26.2-36.8,29.7
	c-6.5,1.6,18.3,10.7,18.3,10.7s-21.2-3.4-32-6.6c-11.3-3.4-44.4,6.6-44.4,6.6L201,259.8z M383.9,138c3.1,0,5.7-2.6,5.7-5.7
	s-2.6-5.7-5.7-5.7s-5.7,2.6-5.7,5.7S380.7,138,383.9,138z"/>
</svg>
