<?xml version="1.0" encoding="utf-8"?>
<svg version="1.1" xmlns="http://www.w3.org/2000/svg" viewBox="0 0 513 342">
<rect fill="#012169" width="513" height="342"/>

<g>
	<rect fill="#012169" width="256.5" height="171"/>
	<g fill="#FFFFFF">
		<polygon points="256.5,0 256.5,30.6 211.2,55.8 256.5,55.8 256.5,115.2 197.3,115.2 256.5,148.1 256.5,171 229.8,171
			156.1,130.1 156.1,171 100.4,171 100.4,122.3 12.8,171 0,171 0,140.4 45.3,115.2 0,115.2 0,55.8 59.2,55.8 0,22.9 0,0 26.7,0
			100.4,40.9 100.4,0 156.1,0 156.1,48.7 243.7,0 "/>
		<polygon points="156.1,115.2 256.5,171 256.5,155.2 184.5,115.2 "/>
		<polygon points="100.4,55.8 0,0 0,15.8 72,55.8 "/>
	</g>
	<g fill="#D80027">
		<polygon points="144.3,0 112.2,0 112.2,69.5 0,69.5 0,101.5 112.2,101.5 112.2,171 144.3,171 144.3,101.5 256.5,101.5
			256.5,69.5 144.3,69.5 "/>
		<polygon points="156.1,115.2 256.5,171 256.5,155.2 184.5,115.2 	"/>
		<polygon points="72,115.2 0,155.2 0,171 0,171 100.4,115.2 	"/>
		<polygon points="100.4,55.8 0,0 0,15.8 72,55.8 	"/>
		<polygon points="184.5,55.8 256.5,15.8 256.5,0 256.5,0 156.1,55.8 	"/>
	</g>
</g>

<g>
	<ellipse fill="#FFFFFF" cx="443.4" cy="233.6" rx="29" ry="43.5"/>
	<ellipse fill="#FFCE00" cx="406.9" cy="317.7" rx="22" ry="9.3"/>
	<ellipse fill="#FFCE00" cx="364" cy="317.7" rx="22" ry="9.3"/>
	<polygon fill="#39B200" points="342,190.1 385.4,277 428.9,190.1 	"/>
	<ellipse fill="#9B9B9B" cx="327.5" cy="233.6" rx="29" ry="43.5"/>
	<path fill="#757575" d="M371,175.6l-14.5,14.5h57.9l-14.5-14.5l14.5-43.5c0,0-13-29-29-29s-29,29-29,29L371,175.6z"/>
	<circle fill="#C6B56F" cx="385.4" cy="67" r="29"/>
	<circle fill="#923f00" cx="386" cy="88.7" r="29"/>
	<circle fill="#FFFFFF" cx="443.4" cy="117.7" r="29"/>
	<circle fill="#0049FF" cx="342.2" cy="146.7" r="29"/>
	<circle fill="#0041F9" cx="429.8" cy="146.7" r="29"/>
	<circle fill="#F7D71E" cx="386" cy="233.6" r="29"/>
	<circle fill="#CEC851" cx="457.9" cy="190.1" r="29"/>
	<circle fill="#FFFFFF" cx="385.4" cy="289.5" r="29"/>
	<path fill="#7C0B29" d="M371,135.7l14.5-3.5l14.5,3.5c0,7.5-14.5,11-14.5,11S371,143.2,371,135.7z"/>
	<circle fill="#FFFFFF" cx="327.5" cy="117.4" r="29"/>
</g>
</svg>
