<?xml version="1.0" encoding="utf-8"?>
<svg version="1.1" xmlns="http://www.w3.org/2000/svg" viewBox="0 0 21 14">
<g>
	<path fill="#FFFFFF" d="M0,0h21v14H0V0z"/>
	<path fill="#EE1C25" d="M0,0h21v14H0V0z"/>
	<path fill="#FFFFFF" d="M12,6.7c-0.8-0.5-1,0.4-1,0c0-0.8,0.9-1.5,2-1.5s2,0.7,2,1.5c-0.9,0-1,0.5-1.5,0.5C12.9,7.2,12.8,7.2,12,6.7z
		 M13.2,6.5c0.1,0,0.2-0.1,0.2-0.2S13.4,6,13.2,6S13,6.1,13,6.2S13.1,6.5,13.2,6.5z M11.4,8.5c0.2-0.9-0.7-0.8-0.3-0.9
		c0.8-0.3,1.7,0.4,2,1.4c0.3,1.1,0,2.1-0.8,2.4c-0.3-0.9-0.8-0.8-0.9-1.3C11.3,9.5,11.2,9.4,11.4,8.5L11.4,8.5z M12,9.6
		c0,0.1,0.2,0.2,0.3,0.2c0.1,0,0.2-0.2,0.2-0.3s-0.2-0.2-0.3-0.2C12,9.3,12,9.5,12,9.6z M9.6,8.5c0.9-0.1,0.6-0.9,0.8-0.6
		c0.5,0.7,0.2,1.7-0.7,2.4c-0.9,0.6-2,0.6-2.5,0c0.8-0.6,0.6-1,0.9-1.3C8.5,8.6,8.6,8.5,9.6,8.5z M8.7,9.4C8.6,9.4,8.5,9.6,8.6,9.7
		S8.9,9.9,9,9.8S9.1,9.5,9,9.4S8.8,9.3,8.7,9.4L8.7,9.4z M9,6.7C9.3,7.6,10,7,9.8,7.3C9.3,8,8.2,8,7.3,7.3C6.4,6.7,6.1,5.6,6.6,4.9
		c0.8,0.6,1.1,0.2,1.5,0.5C8.5,5.8,8.6,5.8,9,6.7z M7.9,6.1C7.8,6,7.6,6.1,7.5,6.2s-0.1,0.3,0,0.4c0,0,0,0,0,0
		c0.1,0.1,0.3,0,0.3-0.1C8,6.4,8,6.2,7.9,6.1z M10.5,5.6c-0.7,0.6,0.1,1.1-0.3,1C9.4,6.3,9,5.2,9.4,4.2c0.3-1,1.3-1.7,2-1.4
		c-0.3,0.9,0.2,1.1,0,1.6C11.3,4.9,11.2,5,10.5,5.6z M10.7,4.4c0-0.1,0-0.3-0.1-0.3c-0.1,0-0.3,0-0.3,0.1c0,0,0,0,0,0
		c0,0.1,0,0.3,0.2,0.3C10.5,4.6,10.6,4.5,10.7,4.4z"/>
</g>
</svg>
