<?xml version="1.0" encoding="UTF-8"?>

<svg xmlns="http://www.w3.org/2000/svg" viewBox="0 0 513 342">
<rect y="0" fill="#012169" width="513" height="342"/>

<g>
	<rect fill="#012169" width="256.5" height="171"/>
	<g fill="#FFFFFF">
		<polygon points="256.5,0 256.5,30.6 211.2,55.8 256.5,55.8 256.5,115.2 197.3,115.2 256.5,148.1 256.5,171 229.8,171
			156.1,130.1 156.1,171 100.4,171 100.4,122.3 12.8,171 0,171 0,140.4 45.3,115.2 0,115.2 0,55.8 59.2,55.8 0,22.9 0,0 26.7,0
			100.4,40.9 100.4,0 156.1,0 156.1,48.7 243.7,0 "/>
		<polygon points="156.1,115.2 256.5,171 256.5,155.2 184.5,115.2 "/>
		<polygon points="100.4,55.8 0,0 0,15.8 72,55.8 "/>
	</g>
	<g fill="#D80027">
		<polygon points="144.3,0 112.2,0 112.2,69.5 0,69.5 0,101.5 112.2,101.5 112.2,171 144.3,171 144.3,101.5 256.5,101.5
			256.5,69.5 144.3,69.5 "/>
		<polygon points="156.1,115.2 256.5,171 256.5,155.2 184.5,115.2 	"/>
		<polygon points="72,115.2 0,155.2 0,171 0,171 100.4,115.2 	"/>
		<polygon points="100.4,55.8 0,0 0,15.8 72,55.8 	"/>
		<polygon points="184.5,55.8 256.5,15.8 256.5,0 256.5,0 156.1,55.8 	"/>
	</g>
</g>

<g fill="#FFFFFF">
	<polygon points="189.2,212.6 200.2,235.5 224.9,229.8 213.8,252.6 233.7,268.4 209,274 209,299.4 189.2,283.5
		169.4,299.4 169.5,274 144.7,268.4 164.6,252.6 153.5,229.8 178.3,235.5 	"/>
	<polygon points="387.1,241.1 392.3,252 404.1,249.3 398.8,260.2 408.3,267.7 396.5,270.3 396.5,282.5 387.1,274.9
		377.6,282.5 377.7,270.3 365.8,267.7 375.3,260.2 370,249.3 381.9,252 	"/>
	<polygon points="338.5,125.1 343.7,136 355.5,133.3 350.2,144.2 359.7,151.7 347.9,154.4 347.9,166.5 338.5,158.9
		329,166.5 329,154.4 317.2,151.7 326.7,144.2 321.4,133.3 333.2,136 	"/>
	<polygon points="387.1,58.9 392.3,69.8 404.1,67.1 398.8,78 408.3,85.5 396.5,88.2 396.5,100.3 387.1,92.7
		377.6,100.3 377.7,88.2 365.8,85.5 375.3,78 370,67.1 381.9,69.8 	"/>
	<polygon points="429.5,108.6 434.8,119.5 446.6,116.8 441.3,127.7 450.8,135.2 439,137.8 439,150 429.5,142.4
		420.1,150 420.1,137.8 408.3,135.2 417.8,127.7 412.5,116.8 424.3,119.5 	"/>
	<polygon points="399.2,166.5 403.3,179.2 416.6,179.2 405.8,187 409.9,199.6 399.2,191.8 388.4,199.6 392.5,187
		381.8,179.2 395.1,179.2 	"/>
</g>

</svg>
