<?xml version="1.0" encoding="utf-8"?>
<svg version="1.1" xmlns="http://www.w3.org/2000/svg" viewBox="0 0 513 342">
<path fill="#ff6820" d="M0,0h513v114H0V0z"/>
<path fill="#FFFFFF" d="M0,114h513v114H0V114z"/>
<path fill="#046a38" d="M0,228h513v114H0V228z"/>
<path fill="none" stroke="#07038d" stroke-width="4" d="M256.5,136.8c18.9,0,34.2,15.3,34.2,34.2s-15.3,34.2-34.2,34.2s-34.2-15.3-34.2-34.2S237.6,136.8,256.5,136.8z"
	/>
<g stroke="#07038d" stroke-width="2">
	<path d="M265.3,138.2l-17.6,65.7 M265.3,138.2l-17.6,65.7"/>
	<path d="M273.5,141.6l-34,58.9"/>
	<path d="M280.5,147L232.5,195"/>
	<path d="M285.9,154l-58.9,34"/>
	<path d="M289.3,162.2l-65.7,17.6"/>
	<path d="M290.5,171h-68"/>
	<path d="M289.3,179.8l-65.7-17.6"/>
	<path d="M285.9,188l-58.9-34"/>
	<path d="M280.5,195L232.5,147"/>
	<path d="M273.5,200.4l-34-58.9"/>
	<path d="M265.3,203.8l-17.6-65.7"/>
	<path d="M256.5,205v-68"/>
	<path d="M247.7,203.8l17.6-65.7"/>
	<path d="M239.5,200.4l34-58.9"/>
	<path d="M232.5,195l48.1-48.1"/>
	<path d="M227.1,188l58.9-34"/>
	<path d="M223.7,179.8l65.7-17.6"/>
	<path d="M222.5,171h68"/>
	<path d="M223.7,162.2l65.7,17.6"/>
	<path d="M227.1,154l58.9,34"/>
	<path d="M232.5,147l48.1,48.1"/>
	<path d="M239.5,141.6l34,58.9"/>
	<path d="M247.7,138.2l17.6,65.7"/>
</g>
</svg>
