<?xml version="1.0" encoding="utf-8"?>
<svg version="1.1" xmlns="http://www.w3.org/2000/svg" viewBox="0 0 513 342">
<path fill="#FFFFFF" d="M0-0.3h513V342H0V-0.3z"/>
<path fill="#012169" d="M462.9,198.1c-4,0-14-5-21-9c-11-6-21-12-31.1-12s-20,6-31.1,12c-7,4-16,9-20,9s-14-5-20-9c-11-6-22-12-32.1-12
	c-9,0-20,6-31.1,12c-7,4-16,9-20,9s-13-5-20-9c-11-6-22-12-31.1-12c-10,0-21,6-32.1,12c-6,4-16,9-20,9s-13-5-20-9
	c-11-6-21-12-31.1-12s-20,6-31.1,12c-7,4-17,9-21,9s-13-5-20-9c-10-6-20-12-30.1-12v22l19,10c11,6,21,12,31.1,12s21-6,32.1-12
	c6-4,16-10,20-10s13,6,20,10c11,6,21,12,31.1,12s20-6,31.1-12c7-4,17-10,21-10s13,6,20,10c11,6,21,12,31.1,12s20-6,31.1-12
	c7-4,16-10,20-10s14,6,21,10c11,6,21,12,31.1,12s20-6,31.1-12c7-4,16-10,20-10s14,6,20,10c11,6,22,12,32.1,12s20-6,31.1-12l19-10
	v-22c-10,0-20,6-30.1,12C475.9,193.1,466.9,198.1,462.9,198.1z M0,31.7l19,10c11,6,21,12,31.1,12s21-6,32.1-12c6-4,16-10,20-10
	s13,6,20,10c11,6,21,12,31.1,12s20-6,31.1-12c7-4,17-10,21-10s13,6,20,10c11,6,21,12,31.1,12s20-6,31.1-12c7-4,16-10,20-10
	s14,6,21,10c11,6,21,12,31.1,12s20-6,31.1-12c7-4,16-10,20-10s14,6,20,10c11,6,22,12,32.1,12s20-6,31.1-12l19-10v-22
	c-10,1-20,6-30.1,12c-7,4-16,9-20,9s-14-5-21-9c-11-6-21-12-31.1-12s-20,6-31.1,12c-7,4-16,9-20,9s-14-5-20-9c-11-6-22-12-32.1-12
	s-20,6-31.1,12c-7,4-16,9-20,9s-13-5-20-9c-11-6-22-12-31.1-12s-21,6-32.1,12c-6,4-16,9-20,9s-13-5-20-9c-11-6-21-12-31.1-12
	s-20,6-31.1,12c-7,4-17,9-21,9s-13-5-20-9c-10-6-20-11-30.1-12V31.7z M462.9,86.9c-4,0-14-5-21-9c-11-6-21-12-31.1-12s-20,6-31.1,12
	c-7,4-16,9-20,9s-14-5-20-9c-11-6-22-12-32.1-12c-9,0-20,6-31.1,12c-7,4-16,9-20,9s-13-5-20-9c-11-6-22-12-31.1-12
	c-10,0-21,6-32.1,12c-6,4-16,9-20,9s-13-5-20-9c-11-6-21-12-31.1-12s-20,6-31.1,12c-7,4-17,9-21,9s-13-5-20-9c-10-6-20-12-30.1-12
	v22l19,9c11,6,21,12,31.1,12s21-6,32.1-12c6-4,16-9,20-9s13,5,20,9c11,6,21,12,31.1,12s20-6,31.1-12c7-4,17-9,21-9s13,5,20,9
	c11,6,21,12,31.1,12s20-6,31.1-12c7-4,16-9,20-9s14,5,21,9c11,6,21,12,31.1,12s20-6,31.1-12c7-4,16-9,20-9s14,5,20,9
	c11,6,22,12,32.1,12s20-6,31.1-12l19-9v-22c-10,0-20,6-30.1,12C475.9,81.8,466.9,86.9,462.9,86.9z M513,120.9c-10,1-20,6-30.1,12
	c-7,4-16,10-20,10s-14-6-21-10c-11-6-21-12-31.1-12s-20,6-31.1,12c-7,4-16,10-20,10s-14-6-20-10c-11-6-22-12-32.1-12s-20,6-31.1,12
	c-7,4-16,10-20,10s-13-6-20-10c-11-6-22-12-31.1-12s-21,6-32.1,12c-6,4-16,10-20,10s-13-6-20-10c-11-6-21-12-31.1-12s-20,6-31.1,12
	c-7,4-17,10-21,10s-13-6-20-10c-10-6-20-11-30.1-12v23c4,1,13,5,19,9c11,6,21,12,31.1,12s21-6,32.1-12c6-4,16-9,20-9s13,5,20,9
	c11,6,21,12,31.1,12s20-6,31.1-12c7-4,17-9,21-9s13,5,20,9c11,6,21,12,31.1,12s20-6,31.1-12c7-4,16-9,20-9s14,5,21,9
	c11,6,21,12,31.1,12s20-6,31.1-12c7-4,16-9,20-9s14,5,20,9c11,6,22,12,32.1,12s20-6,31.1-12c6-4,15-8,19-9V120.9z M462.9,254.2
	c-4,0-14-5-21-9c-11-6-21-12-31.1-12s-20,6-31.1,12c-7,4-16,9-20,9s-14-5-20-9c-11-6-22-12-32.1-12c-9,0-20,6-31.1,12
	c-7,4-16,9-20,9s-13-5-20-9c-11-6-22-12-31.1-12c-10,0-21,6-32.1,12c-6,4-16,9-20,9s-13-5-20-9c-11-6-21-12-31.1-12s-20,6-31.1,12
	c-7,4-17,9-21,9s-13-5-20-9c-10-6-20-12-30.1-12v22l19,9c11,6,21,12,31.1,12s21-6,32.1-12c6-4,16-9,20-9s13,5,20,9
	c11,6,21,12,31.1,12s20-6,31.1-12c7-4,17-9,21-9s13,5,20,9c11,6,21,12,31.1,12s20-6,31.1-12c7-4,16-9,20-9s14,5,21,9
	c11,6,21,12,31.1,12s20-6,31.1-12c7-4,16-9,20-9s14,5,20,9c11,6,22,12,32.1,12s20-6,31.1-12l19-9v-22c-10,0-20,6-30.1,12
	C475.9,249.2,466.9,254.2,462.9,254.2z M513,288.2c-10,1-20,6-30.1,12c-7,4-16,10-20,10s-14-6-21-10c-11-6-21-12-31.1-12
	s-20,6-31.1,12c-7,4-16,10-20,10s-14-6-20-10c-11-6-22-12-32.1-12s-20,6-31.1,12c-7,4-16,10-20,10s-13-6-20-10c-11-6-22-12-31.1-12
	s-21,6-32.1,12c-6,4-16,10-20,10s-13-6-20-10c-11-6-21-12-31.1-12s-20,6-31.1,12c-7,4-17,10-21,10s-13-6-20-10c-10-6-20-11-30.1-12
	v23c4,0,13,5,19,9c11,6,21,12,31.1,12s21-6,32.1-12c6-4,16-9,20-9s13,5,20,9c11,6,21,12,31.1,12s20-6,31.1-12c7-4,17-9,21-9
	s13,5,20,9c11,6,21,12,31.1,12s20-6,31.1-12c7-4,16-9,20-9s14,5,21,9c11,6,21,12,31.1,12s20-6,31.1-12c7-4,16-9,20-9s14,5,20,9
	c11,6,22,12,32.1,12s20-6,31.1-12c6-4,15-9,19-9V288.2z"/>
<g>
	<path fill="#496E2D" d="M278,170.7"/>
	<g fill="#a24300" stroke="#000000" stroke-width="2" stroke-miterlimit="10">
	<path d="M389.8,119.9H408v78.8h-18.3L389.8,119.9L389.8,119.9z M389.8,237.7H408v75.1h-18.3L389.8,237.7L389.8,237.7z"
		/>
	<path d="M0-85.3"/>
	<path d="M0-85.3"/>
	</g>
	<path fill="#006d00" stroke="#004100" stroke-width="2" stroke-miterlimit="10" d="M462.8,91.5h-29.1l25.7-25.7c4.5-4.4,4.5-11.4,0-15.8l-3.4-3.4c-4.4-4.4-11.4-4.4-15.8,0l-25.9,25.9V37.4
		c0-6.2-5.1-11.3-11.3-11.3h-4.7c-6.2,0-11.3,5.1-11.3,11.3v31.7l-23.5-23.8c-4.7-4.7-12.2-4.7-16.9,0l-3.6,3.6
		c-4.7,4.7-4.7,12.4,0,17.2l25,25.4h-30.6c-6,0-10.9,4.9-10.9,10.9v4.6c0,6,4.9,10.9,10.9,10.9H369l-20.7,20.7
		c-4.4,4.4-4.4,11.4,0,15.8l3.4,3.4c4.4,4.4,11.4,4.4,15.8,0l19.6-19.6V167c0,6.1,5.1,11.1,11.3,11.3h4.7c6.2,0,11.3-5.1,11.3-11.3
		v-28.3l22.2,22.6c4.7,4.7,12.4,4.7,17.1,0l3.6-3.6c4.7-4.7,4.7-12.4,0-17.2L435.2,118h27.6c5.9,0,10.7-4.9,10.9-10.9v-4.6
		C473.7,96.4,468.8,91.5,462.8,91.5z"/>
	<path fill="#fed100" stroke="#525625" stroke-width="2" stroke-miterlimit="10" d="M439.2,249.1h-79.8c0,0-0.9-13.4-6-21.8c-6.2-10.4-13.9-28.1-1.4-36.7c15.9-10.9,33.7,0.8,48.2,0.8
		c11.8,0.1,26.9-14,45-0.8c12.2,8.9,3.9,28.2-1.3,36.7C436.9,238.8,439.2,249.1,439.2,249.1z"/>
</g>

<g>
	<rect fill="#012169" width="256.5" height="171"/>
	<g fill="#FFFFFF">
		<polygon points="256.5,0 256.5,30.6 211.2,55.8 256.5,55.8 256.5,115.2 197.3,115.2 256.5,148.1 256.5,171 229.8,171
			156.1,130.1 156.1,171 100.4,171 100.4,122.3 12.8,171 0,171 0,140.4 45.3,115.2 0,115.2 0,55.8 59.2,55.8 0,22.9 0,0 26.7,0
			100.4,40.9 100.4,0 156.1,0 156.1,48.7 243.7,0 "/>
		<polygon points="156.1,115.2 256.5,171 256.5,155.2 184.5,115.2 "/>
		<polygon points="100.4,55.8 0,0 0,15.8 72,55.8 "/>
	</g>
	<g fill="#D80027">
		<polygon points="144.3,0 112.2,0 112.2,69.5 0,69.5 0,101.5 112.2,101.5 112.2,171 144.3,171 144.3,101.5 256.5,101.5
			256.5,69.5 144.3,69.5 "/>
		<polygon points="156.1,115.2 256.5,171 256.5,155.2 184.5,115.2 	"/>
		<polygon points="72,115.2 0,155.2 0,171 0,171 100.4,115.2 	"/>
		<polygon points="100.4,55.8 0,0 0,15.8 72,55.8 	"/>
		<polygon points="184.5,55.8 256.5,15.8 256.5,0 256.5,0 156.1,55.8 	"/>
	</g>
</g>
</svg>