<?xml version="1.0" encoding="utf-8"?>
<svg version="1.1" xmlns="http://www.w3.org/2000/svg" viewBox="0 0 513 342">
<rect fill="#FFFFFF" width="513" height="342"/>
<g stroke="#000000" stroke-width="14.25">
	<path d="M84.6,107.8L132,36.6 M102.3,119.6l47.4-71.1 M120.1,131.5l47.4-71.1"/>
	<path d="M345.4,281.7l47.4-71.1 M363.2,293.5l47.4-71.1 M381,305.4l47.4-71.1"/>

	<path d="M132,305.4l-47.4-71.1 M149.8,293.5l-47.4-71.1 M167.6,281.7l-47.4-71.1"/>
	<path d="M392.8,131.5l-47.4-71.1 M410.6,119.6l-47.4-71.1 M428.4,107.8L381,36.6"/>
</g>
<g stroke="#FFFFFF" stroke-width="12.5">
	<path d="M357.3,238.2l59.3,39.5"/>
	<path d="M117.2,263.9L135,252 M357.3,103.8L378,90 M395.8,78.1l17.8-11.9"/>
</g>
<circle fill="#CA163A" cx="256.5" cy="171" r="85.5"/>
<path fill="#0E4896" d="M185.3,123.6c-13.1,19.6-7.8,46.2,11.9,59.3s46.2,7.8,59.3-11.9s39.6-24.9,59.3-11.9
	c19.6,13.1,24.9,39.6,11.9,59.3c-26.2,39.3-79.3,49.9-118.6,23.7S159.2,162.8,185.3,123.6z"/>
</svg>
