<?xml version="1.0" encoding="UTF-8"?>

<svg xmlns="http://www.w3.org/2000/svg" viewBox="0 0 513 342">

<rect fill="#012169" width="513" height="342"/>

<g stroke="#ffffff" storke-width="2">
	<circle fill="#059334" cx="384" cy="96.5" r="29.7"/>
	<rect x="332.1" y="89" fill="#c8102e" width="103.9" height="44.5"/>
	<path fill="#fcea83" d="M332.1,200.3V230h15.6c9.4,9.2,22.2,14.8,36.3,14.8c14.1,0,27-5.7,36.3-14.8h0.8h14.8v-29.7H332.1z"/>
	<path fill="#004b9e" d="M332.1,126.1v44.5c0,39.8,51.9,51.9,51.9,51.9s51.9-12.2,51.9-51.9v-44.5L332.1,126.1L332.1,126.1z"/>
	<g fill="#F3F3F3">
		<path d="M384,149.9c-13,0-13,11.9-26,11.9s-13-11.9-26-11.9v20.8c13,0,13,11.9,26,11.9s13-11.9,26-11.9
			c13,0,13,11.9,26,11.9c13,0,13-11.9,26-11.9v-20.8c-13,0-13,11.9-26,11.9C397,161.8,397,149.9,384,149.9z"/>
		<path d="M384,108.3c-13,0-13,11.9-26,11.9s-13-11.9-26-11.9v20.8c13,0,13,11.9,26,11.9s13-11.9,26-11.9
			c13,0,13,11.9,26,11.9c13,0,13-11.9,26-11.9v-20.8c-13,0-13,11.9-26,11.9C397,120.2,397,108.3,384,108.3z"/>
	</g>
</g>

<g>
	<rect fill="#012169" width="256.5" height="171"/>
	<g fill="#FFFFFF">
		<polygon points="256.5,0 256.5,30.6 211.2,55.8 256.5,55.8 256.5,115.2 197.3,115.2 256.5,148.1 256.5,171 229.8,171
			156.1,130.1 156.1,171 100.4,171 100.4,122.3 12.8,171 0,171 0,140.4 45.3,115.2 0,115.2 0,55.8 59.2,55.8 0,22.9 0,0 26.7,0
			100.4,40.9 100.4,0 156.1,0 156.1,48.7 243.7,0 "/>
		<polygon points="156.1,115.2 256.5,171 256.5,155.2 184.5,115.2 "/>
		<polygon points="100.4,55.8 0,0 0,15.8 72,55.8 "/>
	</g>
	<g fill="#D80027">
		<polygon points="144.3,0 112.2,0 112.2,69.5 0,69.5 0,101.5 112.2,101.5 112.2,171 144.3,171 144.3,101.5 256.5,101.5
			256.5,69.5 144.3,69.5 "/>
		<polygon points="156.1,115.2 256.5,171 256.5,155.2 184.5,115.2 	"/>
		<polygon points="72,115.2 0,155.2 0,171 0,171 100.4,115.2 	"/>
		<polygon points="100.4,55.8 0,0 0,15.8 72,55.8 	"/>
		<polygon points="184.5,55.8 256.5,15.8 256.5,0 256.5,0 156.1,55.8 	"/>
	</g>
</g>
</svg>
