<?xml version="1.0" encoding="utf-8"?>
<svg version="1.1" xmlns="http://www.w3.org/2000/svg" viewBox="0 0 513 342">
<polygon fill="#d12a46" points="0,0.3 0,171.2 0,342 513,342 513,171.2 513,0.3 "/>
<path fill="#316525" d="M359.8,148.9h-73.3l-22.7-69.7l-22.7,69.7h-73.3l59.3,43.1l-22.7,69.7l59.3-43.1l59.3,43.1L300.5,192
	L359.8,148.9z M243.7,186.6l7.7-23.6h24.8l7.7,23.6l0,0v0l-20.1,14.6L243.7,186.6L243.7,186.6L243.7,186.6z M271.6,148.9H256l7.8-24
	L271.6,148.9z M295.9,177.9l-4.8-14.9h25.3L295.9,177.9z M236.6,163l-4.8,14.9L211.3,163H236.6z M231.3,224.8l7.8-24l12.6,9.2
	L231.3,224.8z M275.8,209.9l12.6-9.2l7.8,24L275.8,209.9z"/>
</svg>
