<?xml version="1.0" encoding="UTF-8"?>

<svg xmlns="http://www.w3.org/2000/svg" viewBox="0 0 513 342">
	<rect fill="#FFDA44" width="513" height="342"/>
	<g fill="#D80027">
		<polygon points="384.6,342 256.5,167.3 283.4,342 	"/>
		<polygon points="133.8,0 256.5,167.3 230.8,0 	"/>
		<polygon points="229.6,342 256.5,167.3 128.4,342 	"/>
		<polygon points="0,0 0,127.8 256.5,167.3 28.4,0 	"/>
		<polygon points="0,342 18.2,342 256.5,167.3 0,206.7 	"/>
		<polygon points="256.5,167.3 513,127.8 513,0 484.6,0 	"/>
		<polygon points="282.2,0 256.5,167.3 379.2,0 	"/>
		<polygon points="513,342 513,206.7 256.5,167.3 494.8,342 	"/>
		<circle cx="256.5" cy="171" r="59.5"/>
	</g>
	<circle fill="#FFDA44" cx="256.5" cy="171" r="44.5"/>
</svg>
