<?xml version="1.0" encoding="utf-8"?>
<svg version="1.1" xmlns="http://www.w3.org/2000/svg" viewBox="0 0 513 342">
<rect fill="#0F7562" x="0" y="0" width="513" height="342"/>
<g fill="#FFDA44">
	<path d="M286.2,168.5c-4.2,0-8.2,0.8-11.9,2.2c2-4.5,3.4-9.5,3.4-14.9c0-21.2-21.2-37.1-21.2-37.1s-21.2,15.9-21.2,37.1
		c0,5.4,1.4,10.4,3.4,14.9c-3.7-1.3-7.7-2.2-11.9-2.2c-25.6,0-37.1,11.2-37.1,11.2s15.9,31.2,37.1,31.2c12.4,0,23-7.3,29.7-13.3
		c6.6,6,17.3,13.3,29.7,13.3c21.2,0,37.1-31.2,37.1-31.2S312.5,168.5,286.2,168.5z"/>
	<polygon points="256.5,71.7 260.9,85.2 275.1,85.2 263.6,93.5 268,107 256.5,98.7 245,107 249.4,93.5 237.9,85.2
		252.1,85.2 	"/>
	<polygon points="202.6,95.3 211,102.9 220.9,97.2 216.2,107.6 224.7,115.2 213.4,114 208.8,124.3 206.4,113.2
		195.1,112.1 205,106.4 	"/>
	<polygon points="163.2,134.8 174.3,137.1 179.9,127.3 181.1,138.6 192.2,140.9 181.8,145.5 183,156.8 175.4,148.4
		165.1,153 170.7,143.2 	"/>
	<polygon points="310.4,95.3 302,102.9 292.1,97.2 296.8,107.6 288.3,115.2 299.6,114 304.2,124.3 306.6,113.2
		317.9,112.1 308,106.4 	"/>
	<polygon points="349.8,134.8 338.7,137.1 333.1,127.3 331.9,138.6 320.8,140.9 331.2,145.5 330,156.8 337.6,148.4
		347.9,153 342.3,143.2 	"/>
</g>
<g fill="#FFFFFF">
	<path d="M256.5,270.3c16.8,0,32.4-5.6,44.8-15.1h-89.6C224.1,264.6,239.7,270.3,256.5,270.3z"/>
	<path d="M188.5,225.7c2.4,5.4,5.3,10.4,8.9,15.1c0,0,26.7,0,40.6,0c13.9,0,18.5-7,18.5-7s5.3,7,18.6,7
		c13.3,0,40.6,0,40.6,0c3.5-4.6,6.5-9.7,8.9-15.1c0,0-34,0-49.5,0c-15.5,0-18.6-10-18.6-10s-5.3,10-18.5,10S188.5,225.7,188.5,225.7
		z"/>
</g>
</svg>
