<?xml version="1.0" encoding="UTF-8"?>

<svg xmlns="http://www.w3.org/2000/svg" viewBox="0 0 513 342">
	<rect y="0" fill="#00a95c" width="513" height="342"/>
	<rect y="0" fill="#d01c1f" width="513" height="46"/>
	<rect y="296" fill="#d01c1f" width="513" height="46"/>
	<path fill="#ffd700" d="M256,213.9c-46,0-84.3-32.3-93.8-75.4c-1.4,6.6-2.2,13.5-2.2,20.6c0,53,43,96,96,96s96-43,96-96
	c0-7.1-0.8-13.9-2.2-20.6C340.3,181.6,302,213.9,256,213.9z"/>
	<polygon fill="#ffd700" points="256,87 264.9,114.5 293.9,114.5 270.5,131.5 279.4,159 256,142 232.6,159 241.5,131.5 218.1,114.5
	247.1,114.5 "/>
</svg>
