<?xml version="1.0" encoding="utf-8"?>
<svg version="1.1" xmlns="http://www.w3.org/2000/svg" viewBox="0 0 513 342">
<rect y="0" fill="#012169" width="513" height="342"/>
<g>
	<path fill="#00A2B8" stroke="#FFFFFF" stroke-width="3" d="M318.2,106.7v106.5c0,51.9,67.8,67.8,67.8,67.8s67.8-15.9,67.8-67.8V106.7H318.2z"/>
	<path fill="#A35023" d="M319.7,212.7c0,50.8,66.3,66.3,66.3,66.3s66.3-15.6,66.3-66.3H319.7L319.7,212.7z"/>
	<polygon fill="#551100" points="415.1,155.1 395.7,155.1 395.7,135.7 376.3,135.7 376.3,155.1 357,155.1 357,174.5 376.3,174.5 376.3,232.6
		395.7,232.6 395.7,174.5 415.1,174.5 "/>
</g>
<g>
	<rect fill="#012169" width="256.5" height="171"/>
	<g fill="#FFFFFF">
		<polygon points="256.5,0 256.5,30.6 211.2,55.8 256.5,55.8 256.5,115.2 197.3,115.2 256.5,148.1 256.5,171 229.8,171
			156.1,130.1 156.1,171 100.4,171 100.4,122.3 12.8,171 0,171 0,140.4 45.3,115.2 0,115.2 0,55.8 59.2,55.8 0,22.9 0,0 26.7,0
			100.4,40.9 100.4,0 156.1,0 156.1,48.7 243.7,0 "/>
		<polygon points="156.1,115.2 256.5,171 256.5,155.2 184.5,115.2 "/>
		<polygon points="100.4,55.8 0,0 0,15.8 72,55.8 "/>
	</g>
	<g fill="#D80027">
		<polygon points="144.3,0 112.2,0 112.2,69.5 0,69.5 0,101.5 112.2,101.5 112.2,171 144.3,171 144.3,101.5 256.5,101.5
			256.5,69.5 144.3,69.5 "/>
		<polygon points="156.1,115.2 256.5,171 256.5,155.2 184.5,115.2 	"/>
		<polygon points="72,115.2 0,155.2 0,171 0,171 100.4,115.2 	"/>
		<polygon points="100.4,55.8 0,0 0,15.8 72,55.8 	"/>
		<polygon points="184.5,55.8 256.5,15.8 256.5,0 256.5,0 156.1,55.8 	"/>
	</g>
</g>
</svg>
