<?xml version="1.0" encoding="utf-8"?>
<svg version="1.1" xmlns="http://www.w3.org/2000/svg" viewBox="0 0 513 342">
<rect fill="#009a44" width="513" height="342"/>
<polyline fill="#002f6c" points="0,342 0,0 513,0 "/>
<polygon fill="#FFFFFF" points="513,67 513,0 412.5,0 0,275 0,342 100.5,342 "/>
<polygon fill="#c8102e" points="513,0 513,40.2 60.3,342 0,342 0,301.8 452.7,0 "/>
<polygon fill="#ffcd00" points="188.1,104.1 165.3,114.8 177.5,136.9 152.7,132.1 149.6,157.1 132.3,138.7 115.1,157.1 112,132.1
	87.2,136.9 99.4,114.8 76.6,104.1 99.4,93.4 87.2,71.3 112,76 115.1,51 132.3,69.4 149.6,51 152.7,76 177.5,71.3 165.3,93.4 "/>
</svg>
