<?xml version="1.0" encoding="utf-8"?>
<svg version="1.1" xmlns="http://www.w3.org/2000/svg" viewBox="0 0 513 342">
<path fill="#009543" d="M0,234.8h513V342H0V234.8z"/>
<path fill="#ED4135" d="M0,105.8h513v129.3H0V105.8z"/>
<path fill="#0035AD" d="M0,0h513v106.8H0V0z"/>
<circle fill="#FAE600" stroke="#000000" stroke-width="5.3" cx="192.4" cy="171" r="126.1"/>
<g fill="#000000">
	<path d="M246.8,284.1l-25.5,9.6l-28.9,3.4l-30.3-1.9l-28.8-12.4c0,0,22.9-23.5,32.6-26.9c6.9-2.4,18-3,18-3V97.8l-0.2-52.9h13.5
		L196.8,99v153.7c0,0,12.3,1,17.7,3.3C223.5,259.8,246.8,284.1,246.8,284.1z"/>
	<path d="M168.3,80.8l39.5-19.7l5.1,10.3l-39.5,19.7L168.3,80.8z"/>
	<ellipse cx="190.6" cy="224.8" rx="13.5" ry="21.2"/>
	<circle cx="190.3" cy="114.9" r="16.8"/>
	<ellipse cx="191.1" cy="169.2" rx="16" ry="9.7"/>
	<rect x="171.4" y="146.7" width="37.7" height="8"/>
	<rect x="171.4" y="182.7" width="37.7" height="8"/>
</g>
<g fill="none" stroke="#000000" stroke-width="10" stroke-miterlimit="10">
	<path d="M163.4,112.2c0,0,0.8,26.8,27.3,26.8s26.5-26.8,26.5-26.8"/>
	<path class="st4" d="M163.4,224.8c0,0,1.9-26.6,27.3-26.6s26.5,26.6,26.5,26.6"/>
</g>
</svg>
