<?xml version="1.0" encoding="UTF-8"?>

<svg xmlns="http://www.w3.org/2000/svg" viewBox="0 0 513 342">
<rect y="0" fill="#D80027" width="513" height="342"/>
<polygon fill="#FFFFFF" points="513,211 202.6,211 202.6,342 184,342 141.3,342 122.7,342 122.7,211 0,211 0,192.4 0,149.6 0,131
	122.7,131 122.7,0 141.3,0 184,0 202.6,0 202.6,131 513,131 513,149.6 513,192.4 "/>
<polygon fill="#1f3f7a" points="513,149.6 513,192.4 184,192.4 184,342 141.3,342 141.3,192.4 0,192.4 0,149.6 141.3,149.6 141.3,0
	184,0 184,149.6 "/>
</svg>
