<?xml version="1.0" encoding="utf-8"?>
<svg version="1.1" xmlns="http://www.w3.org/2000/svg" viewBox="0 0 513 342">
<rect fill="#FFFFFF" width="513" height="342"/>
<polygon fill="#0052B4" points="0,342 0,-0.2 281.1,175 87.8,175 271.8,342 "/>
<polygon fill="#D80027" points="243.4,164.8 9.2,19.3 9.2,164.8 9.2,332.8 244.4,332.8 60.3,164.8 "/>
<polygon fill="#FFFFFF" points="62.4,204.1 70.3,220.3 85.2,210.2 83.9,228.2 101.9,226.9 91.8,241.8 108,249.7 91.8,257.5
	101.9,272.5 83.9,271.2 85.2,289.1 70.3,279 62.4,295.2 54.6,279 39.7,289.1 41,271.2 23,272.5 33.1,257.5 16.9,249.7 33.1,241.8
	23,226.9 41,228.2 39.7,210.2 54.6,220.3 "/>
<polygon fill="#FFFFFF" points="57.1,100.4 62.4,108.1 67.8,100.4 69.8,109.5 77.7,104.5 76,113.7 85.3,112 80.2,119.9 89.4,121.9
	81.6,127.3 89.4,132.6 80.2,134.6 85.3,142.5 76,140.8 77.7,150.1 69.8,145 67.8,154.2 62.4,146.5 57.1,154.2 55.1,145 47.2,150.1
	48.9,140.8 39.6,142.5 44.7,134.6 35.5,132.6 43.2,127.3 35.5,121.9 44.7,119.9 39.6,112 48.9,113.7 47.2,104.5 55.1,109.5 "/>
<path fill="#FFFFFF" d="M18.5,108.7c0,0,4.8,27.7,44,27.7s44-27.7,44-27.7c0,9.4-6,46.5-44,46.5S18.5,117,18.5,108.7z"/>
</svg>
