<?xml version="1.0" encoding="utf-8"?>
<svg version="1.1" xmlns="http://www.w3.org/2000/svg" viewBox="0 0 513 342">
<rect fill="#fedd00" width="513" height="342"/>
<g>
	<rect fill="#012169" width="256.5" height="171"/>
	<g fill="#FFFFFF">
		<polygon points="256.5,0 256.5,30.6 211.2,55.8 256.5,55.8 256.5,115.2 197.3,115.2 256.5,148.1 256.5,171 229.8,171
			156.1,130.1 156.1,171 100.4,171 100.4,122.3 12.8,171 0,171 0,140.4 45.3,115.2 0,115.2 0,55.8 59.2,55.8 0,22.9 0,0 26.7,0
			100.4,40.9 100.4,0 156.1,0 156.1,48.7 243.7,0 "/>
		<polygon points="156.1,115.2 256.5,171 256.5,155.2 184.5,115.2 "/>
		<polygon points="100.4,55.8 0,0 0,15.8 72,55.8 "/>
	</g>
	<g fill="#D80027">
		<polygon points="144.3,0 112.2,0 112.2,69.5 0,69.5 0,101.5 112.2,101.5 112.2,171 144.3,171 144.3,101.5 256.5,101.5
			256.5,69.5 144.3,69.5 "/>
		<polygon points="156.1,115.2 256.5,171 256.5,155.2 184.5,115.2 	"/>
		<polygon points="72,115.2 0,155.2 0,171 0,171 100.4,115.2 	"/>
		<polygon points="100.4,55.8 0,0 0,15.8 72,55.8 	"/>
		<polygon points="184.5,55.8 256.5,15.8 256.5,0 256.5,0 156.1,55.8 	"/>
	</g>
</g>
<g>
	<ellipse fill="#012169" cx="126.8" cy="85.7" rx="29.9" ry="29.9"/>
	<g fill="#fedd00">
		<polygon points="128.3,128.6 131.8,139.5 143.3,139.5 134,146.2 137.5,157.1 128.3,150.4 119,157.1 122.5,146.2
			113.3,139.5 124.7,139.5 	"/>
		<polygon points="128.2,13.2 131.8,24.1 143.2,24.1 134,30.8 137.5,41.7 128.2,35 119,41.7 122.5,30.8 113.2,24.1
			124.7,24.1 	"/>
		<polygon points="204.6,71.3 208.1,82.2 219.6,82.2 210.3,88.9 213.8,99.8 204.6,93.1 195.3,99.8 198.8,88.9
			189.6,82.2 201,82.2 	"/>
		<polygon points="52.8,71.4 56.4,82.3 67.8,82.3 58.5,89.1 62.1,99.9 52.8,93.2 43.5,99.9 47.1,89.1 37.8,82.3
			49.3,82.3 	"/>
		<polygon points="126.8,55.8 133.5,76.5 155.3,76.5 137.6,89.3 144.4,109.9 126.8,97.2 109.1,109.9 115.9,89.3
			98.3,76.5 120,76.5 	"/>
	</g>
</g>
</svg>
