<?xml version="1.0" encoding="utf-8"?>
<svg version="1.1" xmlns="http://www.w3.org/2000/svg" viewBox="0 0 513 342">
<rect fill="#012169" width="513" height="342"/>
<g fill="#D80027" stroke="#FFFFFF" stroke-width="2" stroke-miterlimit="10">
	<polygon points="448.9,107.7 453.1,120.8 466.9,120.8 455.8,128.9 460,142 448.9,133.9 437.8,142 442,128.9
		430.9,120.8 444.6,120.8 	"/>
	<polygon points="384.7,253.6 389.8,269.2 406.2,269.2 393,278.9 398,294.5 384.7,284.8 371.5,294.5 376.5,278.9
		363.2,269.2 379.7,269.2 	"/>
	<polygon points="384.8,43.4 389.5,58 404.8,58 392.4,66.9 397.1,81.5 384.8,72.5 372.4,81.5 377.1,66.9 364.8,58
		380,58 	"/>
	<polygon points="320.6,129.4 325.3,143.9 340.6,143.9 328.3,152.9 333,167.4 320.6,158.5 308.3,167.4 313,152.9
		300.6,143.9 315.9,143.9 	"/>
</g>
<g>
	<rect fill="#012169" width="256.5" height="171"/>
	<g fill="#FFFFFF">
		<polygon points="256.5,0 256.5,30.6 211.2,55.8 256.5,55.8 256.5,115.2 197.3,115.2 256.5,148.1 256.5,171 229.8,171
			156.1,130.1 156.1,171 100.4,171 100.4,122.3 12.8,171 0,171 0,140.4 45.3,115.2 0,115.2 0,55.8 59.2,55.8 0,22.9 0,0 26.7,0
			100.4,40.9 100.4,0 156.1,0 156.1,48.7 243.7,0 "/>
		<polygon points="156.1,115.2 256.5,171 256.5,155.2 184.5,115.2 "/>
		<polygon points="100.4,55.8 0,0 0,15.8 72,55.8 "/>
	</g>
	<g fill="#D80027">
		<polygon points="144.3,0 112.2,0 112.2,69.5 0,69.5 0,101.5 112.2,101.5 112.2,171 144.3,171 144.3,101.5 256.5,101.5
			256.5,69.5 144.3,69.5 "/>
		<polygon points="156.1,115.2 256.5,171 256.5,155.2 184.5,115.2 	"/>
		<polygon points="72,115.2 0,155.2 0,171 0,171 100.4,115.2 	"/>
		<polygon points="100.4,55.8 0,0 0,15.8 72,55.8 	"/>
		<polygon points="184.5,55.8 256.5,15.8 256.5,0 256.5,0 156.1,55.8 	"/>
	</g>
</g>
</svg>
