<?xml version="1.0" encoding="utf-8"?>
<svg version="1.1" xmlns="http://www.w3.org/2000/svg" viewBox="0 0 513 342">
<rect fill="#FFFFFF" width="513" height="342"/>
<g fill="#D80027">
	<rect y="0" width="171" height="342"/>
	<rect x="342" width="171" height="342"/>
</g>
<path fill="#00A854" d="M224.3,119c4.3,7.6-17.1,71.9-6.5,87.8s21.9,22.4,38.2,22.4c16.3,0,30.7-6.8,39.6-24.7s-14.2-76.3-6.8-85.4
	c7.4-9.1,29.3,8.5,35.5,35.2c6.2,26.7-8.4,60.2-20.7,70c-12.3,9.7-20.3,9.7-47.6,9.7s-32.4-1.4-45-10.7
	c-12.5-9.4-28.9-35.8-22.7-67.3C194.5,124.3,220,111.4,224.3,119z"/>
<path fill="#D91023" stroke="#E7CA00" stroke-width="2" d="M272.6,218.9h-32.6c-7.5,0-13.6-6.1-13.6-13.6v-45c0-7.5,6.1-13.6,13.6-13.6h32.6c7.5,0,13.6,6.1,13.6,13.6v45
	C286.3,212.8,280.2,218.9,272.6,218.9z"/>
<ellipse fill="#E7CA00" cx="256.4" cy="200.9" rx="25" ry="13.2"/>
<path fill="#FFFFFF" d="M256.4,147.6v35.1h28.9C285.3,144.4,289.2,147.6,256.4,147.6z"/>
<path fill="#007EA8" d="M256.4,147.6v35.1h-28.9C227.5,144.8,223.8,147.6,256.4,147.6z"/>
<rect x="270.1" y="158.1" fill="#947245" width="1.6" height="21.5"/>
<circle fill="#D18219" stroke="#FFFFFF" cx="241.8" cy="165.2" r="8.1"/>
<ellipse fill="none" stroke="#00A854" stroke-width="6" cx="256.4" cy="122.2" rx="20.5" ry="16.5"/>
<ellipse fill="none" stroke="#E7CA00" stroke-width="3" cx="256.4" cy="122.2" rx="20.5" ry="16.5"/>
<circle fill="#E7CA00" cx="270.9" cy="163.1" r="8.9"/>
</svg>
