<?xml version="1.0" encoding="utf-8"?>
<svg version="1.1" xmlns="http://www.w3.org/2000/svg" viewBox="0 0 513 342">
<rect fill="#FFFFFF" width="513" height="342"/>
<g fill="#D80027">
	<rect width="513" height="85"/>
	<rect y="257" width="513" height="85"/>
</g>
<path fill="#1481DB" d="M329.5,171c0,40.3-32.7,73-73,73s-73-32.7-73-73"/>
<path fill="#FFAB50" d="M256.5,98c-40.3,0-73,32.7-73,73h146C329.5,130.7,296.8,98,256.5,98z"/>
<g fill="#FFFFFF">
	<rect x="181.9" y="169.3" width="150.5" height="4.5"/>
	<rect x="222.4" y="162.9" width="66.5" height="10.9"/>
</g>
<g fill="#D80027" stroke="#630810" stroke-width="2">
	<path d="M212.8,131.1H223c0,0-1.6,55.5,0.1,57.4c11.9,13.5,25.3,0,25.3,0s-2.7,18.9-17.8,18.9s-17.8-18.7-17.8-18.7
		V131.1z"/>
	<path d="M298.4,131.1h-10.2c0,0,1.6,55.5-0.1,57.4c-11.9,13.5-25.3,0-25.3,0s2.7,18.9,17.8,18.9
		c15.1,0,17.8-18.7,17.8-18.7V131.1z"/>
	<path d="M242.6,156l25.9,6.9v-36.4c0,0-14-3.8-14-16.8s14-9.6,14-9.6s-25.9-4.6-25.9,8.1S242.6,156,242.6,156z"/>
</g>
</svg>
