<?xml version="1.0" encoding="utf-8"?>
<svg version="1.1" xmlns="http://www.w3.org/2000/svg" viewBox="0 0 513 342">
<rect x="0" y="0" width="513" height="342"/>
<polyline fill="#C8102E" points="0,0 513,0 513,342 "/>
<g fill="#FFFFFF">
	<polygon points="153.7,225 156.4,233.5 165.4,233.5 158.2,238.7 160.9,247.3 153.7,242 146.4,247.3 149.2,238.7
		141.9,233.5 150.9,233.5 	"/>
	<polygon points="128.4,105 133.6,121 150.4,121 136.8,130.9 142,146.9 128.4,137 114.8,146.9 120,130.9 106.4,121
		123.2,121 	"/>
	<polygon points="128.4,265.3 133.6,281.3 150.4,281.3 136.8,291.2 142,307.2 128.4,297.3 114.8,307.2 120,291.2
		106.4,281.3 123.2,281.3 	"/>
	<polygon points="179.1,169.2 184.3,185.2 201.1,185.2 187.5,195.1 192.7,211.1 179.1,201.2 165.5,211.1 170.7,195.1
		157.1,185.2 173.9,185.2 	"/>
	<polygon points="71.8,173.3 77,189.3 93.8,189.3 80.2,199.2 85.4,215.1 71.8,205.3 58.2,215.1 63.4,199.2 49.8,189.3
		66.6,189.3 	"/>
</g>
<g fill="#FFCD00">
	<path d="M288,79.9c0,0,33,13.8,30,19.7c-2.9,5.9-17.4-7.1-30-3.5c-12.7,3.5-28.6,32.4-28.6,32.4s18.6,2.7,34.2,1.5
		c15.6-1.2,19.7-7.4,19.7-7.4s0.7,15.3,12.7,24.3c18.2,13.6,56.2,22.3,56.2,22.3s0.6-6.5-2.7-20.7s-8-21.4-8-21.4
		s55.7,38.3,51.2,59.3S392.6,206,392.6,206s28.4,12.5,37.4-13.5c12.4-35.6-42.4-65.2-42.4-65.2s6.5,3.1,17.1,4.6s20.3-0.3,20.3-0.3
		s-13.8-43.6-29.2-52.1c-15.3-8.5-37.1-0.9-37.1-0.9s9.1-5.9,10-15.9c0.9-10-3.5-24.1-3.5-24.1c-50.1,21.2-21.2,41.2-33,49.2
		c-2,1.4-9.5-9.9-18.8-8.2C301.9,81.4,288,79.9,288,79.9z"/>
	<path d="M404.7,131.8c0,0,15.3,17.7,8.2,35.9c-7.1,18.3-37.7,13.5-37.7,13.5s24.7,13.9,40.6-5.3s-2.4-43.6-2.4-43.6
		L404.7,131.8z"/>
</g>
</svg>
