<?xml version="1.0" encoding="utf-8"?>
<svg version="1.1" xmlns="http://www.w3.org/2000/svg" viewBox="0 0 513 342">

<rect fill="#012169" width="513" height="342"/>
<g stroke="#000000" stroke-width="1">
	<polygon fill="#96877d" points="400.7,134.5 384,140.1 367.3,134.5 361.7,120.6 367.3,106.7 400.7,106.7 395.1,120.6 "/>
	<path fill="#006ec7" d="M345,134.5v61.2c0,29.8,39,39,39,39s39-9.1,39-39v-61.2H345z"/>
	<path fill="#337321" d="M348.6,210.2c9.6,18.4,35.4,24.5,35.4,24.5s25.9-6.1,35.4-24.5l-35.4-59L348.6,210.2z"/>
	<path fill="#f7e017" d="M423,195.1l-39-60.6l-39,60.6v0.6c0,5.5,1.3,10.3,3.5,14.5l35.4-55.1l35.4,55.1c2.2-4.2,3.5-9,3.5-14.5V195.1z"
		/>
</g>

<g>
	<rect fill="#012169" width="256.5" height="171"/>
	<g fill="#FFFFFF">
		<polygon points="256.5,0 256.5,30.6 211.2,55.8 256.5,55.8 256.5,115.2 197.3,115.2 256.5,148.1 256.5,171 229.8,171
			156.1,130.1 156.1,171 100.4,171 100.4,122.3 12.8,171 0,171 0,140.4 45.3,115.2 0,115.2 0,55.8 59.2,55.8 0,22.9 0,0 26.7,0
			100.4,40.9 100.4,0 156.1,0 156.1,48.7 243.7,0 "/>
		<polygon points="156.1,115.2 256.5,171 256.5,155.2 184.5,115.2 "/>
		<polygon points="100.4,55.8 0,0 0,15.8 72,55.8 "/>
	</g>
	<g fill="#D80027">
		<polygon points="144.3,0 112.2,0 112.2,69.5 0,69.5 0,101.5 112.2,101.5 112.2,171 144.3,171 144.3,101.5 256.5,101.5
			256.5,69.5 144.3,69.5 "/>
		<polygon points="156.1,115.2 256.5,171 256.5,155.2 184.5,115.2 	"/>
		<polygon points="72,115.2 0,155.2 0,171 0,171 100.4,115.2 	"/>
		<polygon points="100.4,55.8 0,0 0,15.8 72,55.8 	"/>
		<polygon points="184.5,55.8 256.5,15.8 256.5,0 256.5,0 156.1,55.8 	"/>
	</g>
</g>
</svg>
