<?xml version="1.0" encoding="utf-8"?>
<svg version="1.1" xmlns="http://www.w3.org/2000/svg" viewBox="0 0 513 342">
<rect y="0" fill="#012169" width="513" height="342"/>

<g>
	<path fill="#5f7dbd" d="M449,139.7c-0.1,44.4-7.2,92.1-65,114.9c-57.8-22.8-64.9-70.5-65-114.9L449,139.7L449,139.7z"/>
	<path fill="#f2d049" d="M449,139.7c0-16.7-0.9-32.9-0.5-47.1C426.9,83,398.4,81,383.9,81s-42.9,2-64.6,11.6
		c0.4,14.2-0.5,30.4-0.5,47.1H449z"/>
	<path fill="#b38c79" d="M369.5,204.5l0.3,10.3L357,215l4.9,13.2l-17.3,0c-18-20.2-23.4-42.4-24.9-68.1l9.1-9.7l8.3,14.3l10.8-12.8
		l7,7.8l0.8,15.7L369.5,204.5z"/>
	<polygon fill="#5c5568" points="436.6,192.5 428,210.8 381,210.8 351.8,191.3 377.5,201.8 402.6,201.8 406.3,195.3 413.5,195.5
		415.5,192.5 "/>
</g>

<g>
	<rect fill="#012169" width="256.5" height="171"/>
	<g fill="#FFFFFF">
		<polygon points="256.5,0 256.5,30.6 211.2,55.8 256.5,55.8 256.5,115.2 197.3,115.2 256.5,148.1 256.5,171 229.8,171
			156.1,130.1 156.1,171 100.4,171 100.4,122.3 12.8,171 0,171 0,140.4 45.3,115.2 0,115.2 0,55.8 59.2,55.8 0,22.9 0,0 26.7,0
			100.4,40.9 100.4,0 156.1,0 156.1,48.7 243.7,0 "/>
		<polygon points="156.1,115.2 256.5,171 256.5,155.2 184.5,115.2 "/>
		<polygon points="100.4,55.8 0,0 0,15.8 72,55.8 "/>
	</g>
	<g fill="#D80027">
		<polygon points="144.3,0 112.2,0 112.2,69.5 0,69.5 0,101.5 112.2,101.5 112.2,171 144.3,171 144.3,101.5 256.5,101.5
			256.5,69.5 144.3,69.5 "/>
		<polygon points="156.1,115.2 256.5,171 256.5,155.2 184.5,115.2 	"/>
		<polygon points="72,115.2 0,155.2 0,171 0,171 100.4,115.2 	"/>
		<polygon points="100.4,55.8 0,0 0,15.8 72,55.8 	"/>
		<polygon points="184.5,55.8 256.5,15.8 256.5,0 256.5,0 156.1,55.8 	"/>
	</g>
</g>
</svg>
