<?xml version="1.0" encoding="utf-8"?>
<svg version="1.1" xmlns="http://www.w3.org/2000/svg" viewBox="0 0 513 342">
<rect fill="#012169" width="513" height="342"/>

<g>
	<rect fill="#012169" width="256.5" height="171"/>
	<g fill="#FFFFFF">
		<polygon points="256.5,0 256.5,30.6 211.2,55.8 256.5,55.8 256.5,115.2 197.3,115.2 256.5,148.1 256.5,171 229.8,171
			156.1,130.1 156.1,171 100.4,171 100.4,122.3 12.8,171 0,171 0,140.4 45.3,115.2 0,115.2 0,55.8 59.2,55.8 0,22.9 0,0 26.7,0
			100.4,40.9 100.4,0 156.1,0 156.1,48.7 243.7,0 "/>
		<polygon points="156.1,115.2 256.5,171 256.5,155.2 184.5,115.2 "/>
		<polygon points="100.4,55.8 0,0 0,15.8 72,55.8 "/>
	</g>
	<g fill="#D80027">
		<polygon points="144.3,0 112.2,0 112.2,69.5 0,69.5 0,101.5 112.2,101.5 112.2,171 144.3,171 144.3,101.5 256.5,101.5
			256.5,69.5 144.3,69.5 "/>
		<polygon points="156.1,115.2 256.5,171 256.5,155.2 184.5,115.2 	"/>
		<polygon points="72,115.2 0,155.2 0,171 0,171 100.4,115.2 	"/>
		<polygon points="100.4,55.8 0,0 0,15.8 72,55.8 	"/>
		<polygon points="184.5,55.8 256.5,15.8 256.5,0 256.5,0 156.1,55.8 	"/>
	</g>
</g>

<g>
	<path fill="#1799f8" d="M448.9,169.5c0,9.6-0.3,29.6-1.4,39.2c-4.1,34.9-23.5,68.8-62.1,85.9c-45.3-17.9-60.8-51-64.9-85.9
		c-1.1-9.6-1.5-19.4-1.5-29l0.3-47.1h129.2L448.9,169.5z"/>
	<path fill="#FFFFFF" d="M447.5,208.7c-0.2,1.6-0.4,3.3-0.6,4.9c-4.8,33.1-22.9,65.4-61.5,81c-43.2-17-59.4-47.9-64.2-81
		c-0.2-1.6-0.4-3.2-0.6-4.9"/>
	<polygon fill="#1799f8" points="385.4,251.7 362.5,208.7 408.3,208.7 "/>
	<polygon fill="#FFFFFF" points="385.4,165.8 362.5,208.7 408.3,208.7 "/>
	<ellipse fill="#dcb072" cx="474.8" cy="236.8" rx="16.8" ry="43.3"/>
	<ellipse fill="#dcb072" cx="295.3" cy="236.8" rx="16.8" ry="43.3"/>
	<polygon fill="#FFFFFF" points="385.4,31.5 352,75.5 420.5,75.5 "/>
	<path fill="#FFFFFF" d="M315.5,280c0,0,33.8,29.5,69.9,29.5s67.1-29.5,67.1-29.5l8.5,14.6c0,0-21.8,31.4-75.6,31.4S307,294.6,307,294.6
		L315.5,280z"/>
	<ellipse fill="#A5A5A5" cx="386.3" cy="104.3" rx="34.3" ry="23.3"/>
</g>
</svg>
