<?xml version="1.0" encoding="utf-8"?>
<svg version="1.1" xmlns="http://www.w3.org/2000/svg" viewBox="0 0 513 342">
<rect fill="#012169" width="513" height="342"/>
<g>
	<path fill="#FFDA44" stroke="#ffffff" stroke-width="4" d="M332.1,106.7v78.2c0,38.1,51.9,49.8,51.9,49.8s51.9-11.7,51.9-49.8v-78.2H332.1z"/>
	<path fill="#fcad56" d="M376.6,135.1c0,7.9-6.6,28.4-14.8,28.4s-14.8-20.6-14.8-28.4c0-7.9,14.8-14.2,14.8-14.2
		S376.6,127.3,376.6,135.1z"/>
	<path fill="#9e540a" d="M416,150.6c2.4-5.6,4.3-13.8,4.3-17.9c0-6.5-8.9-11.9-8.9-11.9s-8.9,5.3-8.9,11.9c0,4.1,1.9,12.3,4.3,17.9
		l-5.1,11.1c3,1.2,6.3,1.8,9.8,1.8c3.5,0,6.8-0.7,9.8-1.8L416,150.6z"/>
	<path fill="#009e49" d="M372.9,184.9c0,0-7.4,14.2-7.4,28.4c0,0,22.3,0,37.1,0c0-14.2-7.4-28.4-7.4-28.4l-11.1-7.1L372.9,184.9z"/>
	<path fill="#ce1126" d="M395.1,184.9v-3.6c0-5.9-5-10.7-11.1-10.7s-11.1,4.8-11.1,10.7v3.6H395.1L395.1,184.9z"/>
</g>
<g>
	<rect fill="#012169" width="256.5" height="171"/>
	<g fill="#FFFFFF">
		<polygon points="256.5,0 256.5,30.6 211.2,55.8 256.5,55.8 256.5,115.2 197.3,115.2 256.5,148.1 256.5,171 229.8,171
			156.1,130.1 156.1,171 100.4,171 100.4,122.3 12.8,171 0,171 0,140.4 45.3,115.2 0,115.2 0,55.8 59.2,55.8 0,22.9 0,0 26.7,0
			100.4,40.9 100.4,0 156.1,0 156.1,48.7 243.7,0 "/>
		<polygon points="156.1,115.2 256.5,171 256.5,155.2 184.5,115.2 "/>
		<polygon points="100.4,55.8 0,0 0,15.8 72,55.8 "/>
	</g>
	<g fill="#D80027">
		<polygon points="144.3,0 112.2,0 112.2,69.5 0,69.5 0,101.5 112.2,101.5 112.2,171 144.3,171 144.3,101.5 256.5,101.5
			256.5,69.5 144.3,69.5 "/>
		<polygon points="156.1,115.2 256.5,171 256.5,155.2 184.5,115.2 	"/>
		<polygon points="72,115.2 0,155.2 0,171 0,171 100.4,115.2 	"/>
		<polygon points="100.4,55.8 0,0 0,15.8 72,55.8 	"/>
		<polygon points="184.5,55.8 256.5,15.8 256.5,0 256.5,0 156.1,55.8 	"/>
	</g>
</g>
</svg>
