<?xml version="1.0" encoding="utf-8"?>
<svg version="1.1" xmlns="http://www.w3.org/2000/svg" viewBox="0 0 513 342">
<path fill="#00B2EE" d="M0,171h256.5V0H513v342H0V171z"/>
<g fill="#FFDA44">
	<path d="M196.8,274.1l16.8,51.6l-43.9-31.9H224l-43.9,31.9L196.8,274.1z"/>
	<path d="M402.6,193.8l16.8,51.6l-43.9-31.9h54.3l-43.9,31.9L402.6,193.8z"/>
	<path d="M463.3,149.1l16.8,51.6l-43.9-31.9h54.3l-43.9,31.9L463.3,149.1z"/>
	<path d="M463.3,21.3L480.1,73L436.1,41h54.3L446.5,73L463.3,21.3z"/>
	<path d="M410.3,75l16.8,51.6l-43.9-31.9h54.3l-43.9,31.9L410.3,75z"/>
	<path d="M332.9,107l16.8,51.6l-43.9-31.9H360l-43.9,31.9L332.9,107z"/>
	<path d="M350,245.4l16.8,51.6l-43.9-31.9h54.3l-43.9,31.9L350,245.4z"/>
	<path d="M278.2,189.2l16.8,51.6L251,209h54.3l-43.9,31.9L278.2,189.2z"/>
	<path d="M278.2,264.5l16.8,51.6L251,284.2h54.3l-43.9,31.9L278.2,264.5z"/>
</g>

<g>
	<rect fill="#012169" width="256.5" height="171"/>
	<g fill="#FFFFFF">
		<polygon points="256.5,0 256.5,30.6 211.2,55.8 256.5,55.8 256.5,115.2 197.3,115.2 256.5,148.1 256.5,171 229.8,171
			156.1,130.1 156.1,171 100.4,171 100.4,122.3 12.8,171 0,171 0,140.4 45.3,115.2 0,115.2 0,55.8 59.2,55.8 0,22.9 0,0 26.7,0
			100.4,40.9 100.4,0 156.1,0 156.1,48.7 243.7,0 "/>
		<polygon points="156.1,115.2 256.5,171 256.5,155.2 184.5,115.2 "/>
		<polygon points="100.4,55.8 0,0 0,15.8 72,55.8 "/>
	</g>
	<g fill="#D80027">
		<polygon points="144.3,0 112.2,0 112.2,69.5 0,69.5 0,101.5 112.2,101.5 112.2,171 144.3,171 144.3,101.5 256.5,101.5
			256.5,69.5 144.3,69.5 "/>
		<polygon points="156.1,115.2 256.5,171 256.5,155.2 184.5,115.2 	"/>
		<polygon points="72,115.2 0,155.2 0,171 0,171 100.4,115.2 	"/>
		<polygon points="100.4,55.8 0,0 0,15.8 72,55.8 	"/>
		<polygon points="184.5,55.8 256.5,15.8 256.5,0 256.5,0 156.1,55.8 	"/>
	</g>
</g>
</svg>
