<?xml version="1.0" encoding="UTF-8"?>

<svg xmlns="http://www.w3.org/2000/svg" viewBox="0 0 513 342">
<rect fill="#3081f7" width="513" height="108"/>
<rect y="108" fill="#ee162e" width="513" height="9"/>
<rect y="117" fill="#FFFFFF" width="513" height="108"/>
<rect y="225" fill="#ee162e" width="513" height="9"/>
<rect y="233" fill="#308738" width="513" height="108"/>
<g fill="#FFFFFF">
	<path  d="M53.5,54c0-23.1,16.4-35,34.3-38.9c-2.7-0.6-5.6-0.9-8.5-0.9c-22,0-39.8,17.8-39.8,39.8s17.8,39.8,39.8,39.8
		c2.9,0,5.8-0.3,8.5-0.9C69.9,89,53.5,77.1,53.5,54z"/>
	<polygon points="111.4,75.3 113.2,81.2 119.4,81.2 114.4,84.8 116.3,90.6 111.4,87 106.4,90.6 108.3,84.8 103.4,81.2
		109.5,81.2 	"/>
	<polygon points="139.2,75.3 141.1,81.2 147.2,81.2 142.2,84.8 144.1,90.6 139.2,87 134.2,90.6 136.1,84.8 131.2,81.2
		137.3,81.2 	"/>
	<polygon points="167,75.3 168.9,81.2 175,81.2 170.1,84.8 172,90.6 167,87 162.1,90.6 164,84.8 159,81.2 165.1,81.2
		"/>
	<polygon points="194.9,75.3 196.8,81.2 202.9,81.2 197.9,84.8 199.8,90.6 194.9,87 189.9,90.6 191.8,84.8 186.9,81.2
		193,81.2 	"/>
	<polygon points="222.7,75.3 224.6,81.2 230.7,81.2 225.8,84.8 227.7,90.6 222.7,87 217.8,90.6 219.7,84.8 214.7,81.2
		220.8,81.2 	"/>
	<polygon points="139.2,46.4 141.1,52.2 147.2,52.2 142.2,55.8 144.1,61.6 139.2,58 134.2,61.6 136.1,55.8 131.2,52.2
		137.3,52.2 	"/>
	<polygon points="167,46.4 168.9,52.2 175,52.2 170.1,55.8 172,61.6 167,58 162.1,61.6 164,55.8 159,52.2 165.1,52.2
		"/>
	<polygon points="194.9,46.4 196.8,52.2 202.9,52.2 197.9,55.8 199.8,61.6 194.9,58 189.9,61.6 191.8,55.8 186.9,52.2
		193,52.2 	"/>
	<polygon points="222.7,46.4 224.6,52.2 230.7,52.2 225.8,55.8 227.7,61.6 222.7,58 217.8,61.6 219.7,55.8 214.7,52.2
		220.8,52.2 	"/>
	<polygon points="167,17.4 168.9,23.2 175,23.2 170.1,26.8 172,32.7 167,29.1 162.1,32.7 164,26.8 159,23.2 165.1,23.2
			"/>
	<polygon points="194.9,17.4 196.8,23.2 202.9,23.2 197.9,26.8 199.8,32.7 194.9,29.1 189.9,32.7 191.8,26.8
		186.9,23.2 193,23.2 	"/>
	<polygon points="222.7,17.4 224.6,23.2 230.7,23.2 225.8,26.8 227.7,32.7 222.7,29.1 217.8,32.7 219.7,26.8
		214.7,23.2 220.8,23.2 	"/>
</g>
</svg>
