<?xml version="1.0" encoding="utf-8"?>
<svg version="1.1" xmlns="http://www.w3.org/2000/svg" viewBox="0 0 513 342">
<rect x="0" y="0" fill="#012169" width="513" height="342"/>
<g>
	<path fill="#ffc72c" d="M384.8,174.7l-46.2,46.2c8.7,16.7,26.1,28.1,46.2,28.1s37.6-11.4,46.2-28.1L384.8,174.7z"/>
	<path fill="#006129" stroke="#ffffff" stroke-width="3" d="M332.7,93v81.8v0l0,0c0,39.8,52,52,52,52s52-12.2,52-52l0,0v0V93L332.7,93L332.7,93z"/>
	<rect x="373.6" y="130.1" fill="#FFFFFF" width="22.3" height="59.5"/>
	<circle fill="#9c4c00" cx="384.8" cy="130.1" r="11.2"/>
	<g fill="#ffc72c">
		<rect x="347.6" y="107.8" width="14.9" height="14.9"/>
		<rect x="347.6" y="141.3" width="14.9" height="14.9"/>
		<rect x="347.6" y="174.7" width="14.9" height="14.9"/>
		<rect x="407.1" y="107.8" width="14.9" height="14.9"/>
		<rect x="407.1" y="141.3" width="14.9" height="14.9"/>
		<rect x="407.1" y="174.7" width="14.9" height="14.9"/>
	</g>
</g>
<g>
	<rect fill="#012169" width="256.5" height="171"/>
	<g fill="#FFFFFF">
		<polygon points="256.5,0 256.5,30.6 211.2,55.8 256.5,55.8 256.5,115.2 197.3,115.2 256.5,148.1 256.5,171 229.8,171
			156.1,130.1 156.1,171 100.4,171 100.4,122.3 12.8,171 0,171 0,140.4 45.3,115.2 0,115.2 0,55.8 59.2,55.8 0,22.9 0,0 26.7,0
			100.4,40.9 100.4,0 156.1,0 156.1,48.7 243.7,0 "/>
		<polygon points="156.1,115.2 256.5,171 256.5,155.2 184.5,115.2 "/>
		<polygon points="100.4,55.8 0,0 0,15.8 72,55.8 "/>
	</g>
	<g fill="#D80027">
		<polygon points="144.3,0 112.2,0 112.2,69.5 0,69.5 0,101.5 112.2,101.5 112.2,171 144.3,171 144.3,101.5 256.5,101.5
			256.5,69.5 144.3,69.5 "/>
		<polygon points="156.1,115.2 256.5,171 256.5,155.2 184.5,115.2 	"/>
		<polygon points="72,115.2 0,155.2 0,171 0,171 100.4,115.2 	"/>
		<polygon points="100.4,55.8 0,0 0,15.8 72,55.8 	"/>
		<polygon points="184.5,55.8 256.5,15.8 256.5,0 256.5,0 156.1,55.8 	"/>
	</g>
</g>
</svg>
