<svg xmlns="http://www.w3.org/2000/svg" xmlns:xlink="http://www.w3.org/1999/xlink" viewBox="0 0 906.78 28.39"><defs><style>.cls-1{fill:url(#linear-gradient);}.cls-2{fill:none;stroke:#000;stroke-miterlimit:10;}</style><linearGradient id="linear-gradient" x1="77.89" y1="6.58" x2="906.28" y2="6.58" gradientUnits="userSpaceOnUse"><stop offset="0.11" stop-color="#ec5b13"/><stop offset="0.21" stop-color="#ecc814"/><stop offset="0.24" stop-color="#eac914"/><stop offset="0.25" stop-color="#e2cd14"/><stop offset="0.27" stop-color="#d4d413"/><stop offset="0.28" stop-color="#c0de13"/><stop offset="0.29" stop-color="#a8ea12"/><stop offset="0.29" stop-color="#a4ec12"/><stop offset="0.38" stop-color="#12ec5b"/><stop offset="0.59" stop-color="#12b6ec"/><stop offset="0.79" stop-color="#2513ec"/><stop offset="1" stop-color="#ec13ec"/></linearGradient></defs><title>alt_legend_feet</title><g id="Layer_2" data-name="Layer 2"><g id="REDESIGN"><rect class="cls-1" x="77.89" width="828.4" height="13.17"/><polyline class="cls-2" points="78 0 78 13.4 906.28 13.4 906.28 0"/><path d="M75.53,22.36c0-1.87.13-4.37,2.42-4.36s2.42,2.28,2.42,4.37c0,1.8-.13,4.29-2.42,4.29S75.53,24.37,75.53,22.36ZM78,25.86c1.3,0,1.37-1.71,1.37-3.5s-.07-3.57-1.37-3.58-1.37,1.7-1.37,3.57S76.66,25.86,78,25.86Z"/><path d="M870.83,18.13h1V23.7h1v.86h-1v2.05h-1V24.57h-3.07v-.95Zm-2.16,5.58h2.16V19.78h0Z"/><path d="M873.62,22.49c0-1.87.13-4.37,2.42-4.37s2.42,2.28,2.42,4.37c0,1.8-.13,4.29-2.42,4.29S873.62,24.51,873.62,22.49ZM876,26c1.3,0,1.37-1.71,1.37-3.5s-.07-3.57-1.37-3.57-1.37,1.7-1.37,3.57S874.75,26,876,26Z"/><path d="M879.81,25.35h1.1v1c0,.91-.07,1.73-1.1,2v-.56a.84.84,0,0,0,.53-.92v-.29h-.53Z"/><path d="M882.26,22.49c0-1.87.13-4.37,2.42-4.37s2.42,2.28,2.42,4.37c0,1.8-.13,4.29-2.42,4.29S882.26,24.51,882.26,22.49Zm2.42,3.5c1.29,0,1.37-1.71,1.37-3.5s-.07-3.57-1.37-3.57-1.37,1.7-1.37,3.57S883.39,26,884.68,26Z"/><path d="M888,22.49c0-1.87.13-4.37,2.42-4.37s2.42,2.28,2.42,4.37c0,1.8-.13,4.29-2.42,4.29S888,24.51,888,22.49Zm2.42,3.5c1.3,0,1.37-1.71,1.37-3.5s-.07-3.57-1.37-3.57-1.37,1.7-1.37,3.57S889.15,26,890.44,26Z"/><path d="M893.78,22.49c0-1.87.13-4.37,2.42-4.37s2.42,2.28,2.42,4.37c0,1.8-.13,4.29-2.42,4.29S893.78,24.51,893.78,22.49ZM896.2,26c1.3,0,1.37-1.71,1.37-3.5s-.07-3.57-1.37-3.57-1.37,1.7-1.37,3.57S894.91,26,896.2,26Z"/><path d="M902.29,24h-2.64v-.79h2.64V20.55h.79v2.64h2.64V24h-2.64v2.64h-.79Z"/><line class="cls-2" x1="720.95" x2="720.95" y2="14.19"/><path d="M707.27,21.83h.53c.9,0,1.29-.65,1.29-1.5s-.29-1.42-1.1-1.42c-1.12,0-1.22,1-1.22,1.66h-1.06c0-1.45.68-2.45,2.25-2.45a2,2,0,0,1,2.18,2.21,1.75,1.75,0,0,1-1.32,1.82v0a1.81,1.81,0,0,1,1.57,2c0,1.55-.78,2.63-2.41,2.63a2.26,2.26,0,0,1-2.41-2.36v-.11h1.06c0,.78.38,1.68,1.36,1.68.62,0,1.35-.31,1.35-1.75a1.42,1.42,0,0,0-1.54-1.62h-.54Z"/><path d="M711.33,22.49c0-1.87.13-4.37,2.42-4.37s2.42,2.28,2.42,4.37c0,1.8-.13,4.29-2.42,4.29S711.33,24.51,711.33,22.49Zm2.42,3.5c1.29,0,1.37-1.71,1.37-3.5s-.07-3.57-1.37-3.57-1.37,1.7-1.37,3.57S712.46,26,713.75,26Z"/><path d="M717.52,25.35h1.1v1c0,.91-.07,1.73-1.1,2v-.56a.84.84,0,0,0,.53-.92v-.29h-.53Z"/><path d="M720,22.49c0-1.87.13-4.37,2.42-4.37s2.42,2.28,2.42,4.37c0,1.8-.13,4.29-2.42,4.29S720,24.51,720,22.49Zm2.42,3.5c1.3,0,1.37-1.71,1.37-3.5s-.07-3.57-1.37-3.57S721,20.62,721,22.49,721.09,26,722.39,26Z"/><path d="M725.73,22.49c0-1.87.13-4.37,2.42-4.37s2.42,2.28,2.42,4.37c0,1.8-.13,4.29-2.42,4.29S725.73,24.51,725.73,22.49Zm2.42,3.5c1.29,0,1.37-1.71,1.37-3.5s-.07-3.57-1.37-3.57-1.37,1.7-1.37,3.57S726.86,26,728.15,26Z"/><path d="M731.49,22.49c0-1.87.13-4.37,2.42-4.37s2.42,2.28,2.42,4.37c0,1.8-.13,4.29-2.42,4.29S731.49,24.51,731.49,22.49Zm2.42,3.5c1.29,0,1.37-1.71,1.37-3.5s-.07-3.57-1.37-3.57-1.37,1.7-1.37,3.57S732.62,26,733.91,26Z"/><line class="cls-2" x1="551.12" x2="551.12" y2="14.19"/><path d="M540.53,26.62h-4.75a4.53,4.53,0,0,1,1.83-3.48l.7-.59a2.51,2.51,0,0,0,1.13-2c0-.73-.32-1.52-1.24-1.52-1.31,0-1.34,1.36-1.34,1.83h-1.06c0-1.61.67-2.7,2.41-2.7a2.11,2.11,0,0,1,2.28,2.27A3.35,3.35,0,0,1,539,23.19l-1.2,1a2.64,2.64,0,0,0-.92,1.45h3.65Z"/><path d="M541.49,22.49c0-1.87.13-4.37,2.42-4.37s2.42,2.28,2.42,4.37c0,1.8-.13,4.29-2.42,4.29S541.49,24.51,541.49,22.49Zm2.42,3.5c1.29,0,1.37-1.71,1.37-3.5s-.07-3.57-1.37-3.57-1.37,1.7-1.37,3.57S542.62,26,543.92,26Z"/><path d="M547.69,25.35h1.1v1c0,.91-.07,1.73-1.1,2v-.56a.84.84,0,0,0,.53-.92v-.29h-.53Z"/><path d="M550.13,22.49c0-1.87.13-4.37,2.42-4.37S555,20.4,555,22.49c0,1.8-.13,4.29-2.42,4.29S550.13,24.51,550.13,22.49Zm2.42,3.5c1.3,0,1.37-1.71,1.37-3.5s-.07-3.57-1.37-3.57-1.37,1.7-1.37,3.57S551.26,26,552.56,26Z"/><path d="M555.89,22.49c0-1.87.13-4.37,2.42-4.37s2.42,2.28,2.42,4.37c0,1.8-.13,4.29-2.42,4.29S555.89,24.51,555.89,22.49Zm2.42,3.5c1.29,0,1.37-1.71,1.37-3.5s-.07-3.57-1.37-3.57-1.37,1.7-1.37,3.57S557,26,558.32,26Z"/><path d="M561.65,22.49c0-1.87.13-4.37,2.42-4.37s2.42,2.28,2.42,4.37c0,1.8-.13,4.29-2.42,4.29S561.65,24.51,561.65,22.49Zm2.42,3.5c1.29,0,1.37-1.71,1.37-3.5s-.07-3.57-1.37-3.57-1.37,1.7-1.37,3.57S562.78,26,564.08,26Z"/><line class="cls-2" x1="426.53" x2="426.53" y2="14.19"/><path d="M411.35,19.48c1.07-.06,2.05-.19,2.1-1.39h.72v8.49h-1V20.2h-1.81Z"/><path d="M416.76,22.46c0-1.87.13-4.37,2.42-4.36s2.42,2.28,2.42,4.37c0,1.8-.13,4.29-2.42,4.29S416.76,24.48,416.76,22.46Zm2.42,3.5c1.3,0,1.37-1.71,1.37-3.5s-.07-3.57-1.37-3.57-1.37,1.7-1.37,3.57S417.89,26,419.18,26Z"/><path d="M423,25.32h1.1v1c0,.91-.07,1.73-1.1,2V27.8a.84.84,0,0,0,.53-.92v-.29H423Z"/><path d="M425.4,22.46c0-1.87.13-4.37,2.42-4.36s2.42,2.28,2.42,4.37c0,1.8-.13,4.29-2.42,4.29S425.4,24.48,425.4,22.46Zm2.42,3.5c1.29,0,1.37-1.71,1.37-3.5s-.07-3.57-1.37-3.57-1.37,1.7-1.37,3.57S426.53,26,427.82,26Z"/><path d="M431.16,22.47c0-1.87.13-4.37,2.42-4.37S436,20.38,436,22.47c0,1.8-.13,4.29-2.42,4.29S431.16,24.48,431.16,22.47Zm2.42,3.5c1.3,0,1.37-1.71,1.37-3.5s-.07-3.57-1.37-3.58-1.37,1.7-1.37,3.57S432.29,26,433.58,26Z"/><path d="M436.92,22.47c0-1.87.13-4.37,2.42-4.36s2.42,2.28,2.42,4.37c0,1.8-.13,4.29-2.42,4.29S436.92,24.48,436.92,22.47Zm2.42,3.5c1.3,0,1.37-1.71,1.37-3.5s-.07-3.57-1.37-3.58S438,20.6,438,22.47,438,26,439.34,26Z"/><line class="cls-2" x1="369.76" x2="369.76" y2="14.19"/><path d="M358.35,22.05a1.76,1.76,0,0,1-1.23-1.81,2.17,2.17,0,0,1,4.34,0,1.76,1.76,0,0,1-1.24,1.81,2,2,0,0,1,1.5,2.18,2.44,2.44,0,1,1-4.87,0A2,2,0,0,1,358.35,22.05Zm.93,3.9c1,0,1.38-.75,1.38-1.75s-.4-1.75-1.38-1.75-1.38.75-1.38,1.75S358.3,25.95,359.29,25.95Zm-1.11-5.69c0,.79.33,1.39,1.12,1.39s1.12-.6,1.12-1.39-.35-1.39-1.12-1.39S358.17,19.46,358.17,20.26Z"/><path d="M363.06,25.3h1.1v1c0,.91-.07,1.73-1.1,2v-.56a.84.84,0,0,0,.53-.92v-.29h-.53Z"/><path d="M365.5,22.45c0-1.87.13-4.36,2.42-4.36s2.42,2.28,2.42,4.37c0,1.8-.13,4.29-2.42,4.29S365.5,24.46,365.5,22.45Zm2.42,3.5c1.3,0,1.37-1.71,1.37-3.5s-.07-3.57-1.37-3.58-1.37,1.7-1.37,3.57S366.63,26,367.93,26Z"/><path d="M371.26,22.45c0-1.87.13-4.37,2.42-4.36s2.42,2.28,2.42,4.37c0,1.8-.13,4.29-2.42,4.29S371.26,24.46,371.26,22.45Zm2.42,3.5c1.3,0,1.37-1.71,1.37-3.5s-.07-3.57-1.37-3.57-1.37,1.7-1.37,3.57S372.39,26,373.69,26Z"/><path d="M377,22.45c0-1.87.13-4.37,2.42-4.36s2.42,2.28,2.42,4.37c0,1.8-.13,4.29-2.42,4.29S377,24.47,377,22.45Zm2.42,3.5c1.29,0,1.37-1.71,1.37-3.5s-.07-3.57-1.37-3.57-1.37,1.7-1.37,3.57S378.15,26,379.45,26Z"/><line class="cls-2" x1="311.41" x2="311.41" y2="14.19"/><path d="M302.51,20.1a1.11,1.11,0,0,0-1.12-1.25c-1.42,0-1.5,2.11-1.5,2.55v.67h0a1.85,1.85,0,0,1,1.62-.95c1.48,0,2.22,1.09,2.22,2.69s-.82,2.9-2.4,2.9c-2.35,0-2.52-2.27-2.52-4,0-1.94.12-4.63,2.58-4.63a2,2,0,0,1,2.15,2Zm-1.15,5.83c1.06,0,1.34-1.08,1.34-2s-.22-2-1.34-2S300,23.08,300,24,300.3,25.93,301.36,25.93Z"/><path d="M305.07,25.29h1.1v1c0,.91-.07,1.73-1.1,2v-.56a.84.84,0,0,0,.53-.92v-.29h-.53Z"/><path d="M307.52,22.43c0-1.87.13-4.37,2.42-4.37s2.42,2.28,2.42,4.37c0,1.8-.13,4.29-2.42,4.29S307.52,24.45,307.52,22.43Zm2.42,3.5c1.29,0,1.37-1.71,1.37-3.5s-.07-3.57-1.37-3.58-1.37,1.7-1.37,3.57S308.64,25.93,309.94,25.93Z"/><path d="M313.28,22.43c0-1.87.13-4.37,2.42-4.36s2.42,2.28,2.42,4.37c0,1.8-.13,4.29-2.42,4.29S313.28,24.45,313.28,22.43Zm2.42,3.5c1.29,0,1.37-1.71,1.37-3.5s-.07-3.57-1.37-3.58-1.37,1.7-1.37,3.57S314.4,25.94,315.7,25.94Z"/><path d="M319,22.44c0-1.87.13-4.37,2.42-4.36s2.42,2.28,2.42,4.37c0,1.8-.13,4.29-2.42,4.29S319,24.45,319,22.44Zm2.42,3.5c1.3,0,1.37-1.71,1.37-3.5s-.07-3.57-1.37-3.57-1.37,1.7-1.37,3.57S320.16,25.94,321.46,25.94Z"/><line class="cls-2" x1="253.06" x2="253.06" y2="14.19"/><path d="M242.28,18.05h1v5.58h1v.86h-1v2.05h-1V24.49h-3.07v-.95Zm-2.16,5.58h2.16V19.71h0Z"/><path d="M245.5,25.27h1.1v1c0,.91-.07,1.73-1.1,2v-.56a.84.84,0,0,0,.53-.92v-.29h-.53Z"/><path d="M247.95,22.42c0-1.87.13-4.37,2.42-4.36s2.42,2.28,2.42,4.37c0,1.8-.13,4.29-2.42,4.29S247.95,24.43,247.95,22.42Zm2.42,3.5c1.29,0,1.37-1.71,1.37-3.5s-.07-3.58-1.37-3.58S249,20.55,249,22.42,249.07,25.92,250.37,25.92Z"/><path d="M253.71,22.42c0-1.87.13-4.37,2.42-4.36s2.42,2.28,2.42,4.37c0,1.8-.13,4.29-2.42,4.29S253.71,24.43,253.71,22.42Zm2.42,3.5c1.29,0,1.37-1.71,1.37-3.5s-.07-3.57-1.37-3.57-1.37,1.7-1.37,3.57S254.83,25.92,256.13,25.92Z"/><path d="M259.47,22.42c0-1.87.13-4.37,2.42-4.36s2.42,2.28,2.42,4.37c0,1.8-.13,4.29-2.42,4.29S259.47,24.43,259.47,22.42Zm2.42,3.5c1.3,0,1.37-1.71,1.37-3.5s-.07-3.57-1.37-3.57-1.37,1.7-1.37,3.57S260.59,25.92,261.89,25.92Z"/><line class="cls-2" x1="194.7" x2="194.7" y2="14.19"/><path d="M186.12,26.53h-4.75A4.53,4.53,0,0,1,183.2,23l.7-.59a2.51,2.51,0,0,0,1.13-2c0-.73-.32-1.52-1.24-1.52-1.31,0-1.34,1.35-1.34,1.83h-1.06c0-1.61.67-2.7,2.41-2.7a2.11,2.11,0,0,1,2.28,2.27,3.35,3.35,0,0,1-1.49,2.79l-1.2,1a2.64,2.64,0,0,0-.92,1.45h3.65Z"/><path d="M187.51,25.26h1.1v1c0,.91-.07,1.73-1.1,2v-.56a.84.84,0,0,0,.53-.92v-.29h-.53Z"/><path d="M190,22.4c0-1.87.13-4.37,2.42-4.37s2.42,2.28,2.42,4.37c0,1.8-.13,4.29-2.42,4.29S190,24.42,190,22.4Zm2.42,3.5c1.29,0,1.37-1.71,1.37-3.5s-.07-3.57-1.37-3.58S191,20.53,191,22.4,191.08,25.9,192.38,25.9Z"/><path d="M195.72,22.4c0-1.87.13-4.37,2.42-4.36s2.42,2.28,2.42,4.37c0,1.8-.13,4.29-2.42,4.29S195.72,24.42,195.72,22.4Zm2.42,3.5c1.29,0,1.37-1.71,1.37-3.5s-.07-3.57-1.37-3.57-1.37,1.7-1.37,3.57S196.84,25.91,198.14,25.91Z"/><path d="M201.48,22.4c0-1.87.13-4.37,2.42-4.36s2.42,2.28,2.42,4.37c0,1.8-.13,4.29-2.42,4.29S201.48,24.42,201.48,22.4Zm2.42,3.5c1.3,0,1.37-1.71,1.37-3.5s-.07-3.57-1.37-3.57-1.37,1.7-1.37,3.57S202.61,25.91,203.9,25.91Z"/><line class="cls-2" x1="136.35" x2="136.35" y2="14.19"/><path d="M123.68,19.41c1.07-.06,2.05-.19,2.1-1.39h.72v8.49h-1V20.13h-1.81Z"/><path d="M129.52,25.24h1.1v1c0,.91-.07,1.73-1.1,2v-.56a.84.84,0,0,0,.53-.92v-.29h-.53Z"/><path d="M132,22.39c0-1.87.13-4.37,2.42-4.37s2.42,2.28,2.42,4.37c0,1.8-.13,4.29-2.42,4.29S132,24.4,132,22.39Zm2.42,3.5c1.29,0,1.37-1.71,1.37-3.5s-.07-3.57-1.37-3.58S133,20.51,133,22.39,133.09,25.89,134.39,25.89Z"/><path d="M137.73,22.39c0-1.87.13-4.36,2.42-4.36s2.42,2.28,2.42,4.37c0,1.8-.13,4.29-2.42,4.29S137.73,24.4,137.73,22.39Zm2.42,3.5c1.29,0,1.37-1.71,1.37-3.5s-.07-3.57-1.37-3.58-1.37,1.7-1.37,3.57S138.85,25.89,140.15,25.89Z"/><path d="M143.49,22.39c0-1.87.13-4.37,2.42-4.36s2.42,2.28,2.42,4.37c0,1.8-.13,4.29-2.42,4.29S143.49,24.4,143.49,22.39Zm2.42,3.5c1.3,0,1.37-1.71,1.37-3.5s-.07-3.57-1.37-3.57-1.37,1.7-1.37,3.57S144.62,25.89,145.91,25.89Z"/><line class="cls-2" x1="106.39" x2="106.39" y2="14.19"/><path d="M98.56,18.17h3.79v.94h-3L99,21.57l0,0a1.92,1.92,0,0,1,1.49-.64c1.27,0,2.13,1,2.13,2.8,0,1.58-.7,2.91-2.47,2.91a2.21,2.21,0,0,1-2.33-2.35h1.06c0,.44.17,1.56,1.29,1.56s1.39-1.34,1.39-2.21-.35-1.92-1.42-1.92a1.26,1.26,0,0,0-1.2.83l-.91,0Z"/><path d="M103.61,22.37c0-1.87.13-4.37,2.42-4.36s2.42,2.28,2.42,4.37c0,1.8-.13,4.29-2.42,4.29S103.61,24.39,103.61,22.37Zm2.42,3.5c1.29,0,1.37-1.71,1.37-3.5s-.07-3.57-1.37-3.57-1.37,1.7-1.37,3.57S104.73,25.87,106,25.87Z"/><path d="M109.37,22.37c0-1.87.13-4.37,2.42-4.36s2.42,2.28,2.42,4.37c0,1.8-.13,4.29-2.42,4.29S109.37,24.39,109.37,22.37Zm2.42,3.5c1.29,0,1.37-1.71,1.37-3.5s-.07-3.57-1.37-3.57-1.37,1.7-1.37,3.57S110.49,25.88,111.79,25.88Z"/><path d="M2.44,3.48H4.19L6.44,12H5l-.53-2.1H2L1.43,12H0ZM4.26,8.85l-1-4.22h0l-1,4.22Z"/><path d="M6.89,3.48H8.26v7.41h3.31V12H6.89Z"/><path d="M12.68,4.63h-2V3.48H16V4.63H14V12H12.67Z"/><path d="M16.77,3.48h1.37V12H16.77Z"/><path d="M20.9,4.63h-2V3.48h5.41V4.63h-2V12H20.89Z"/><path d="M26.31,3.48V9.62c0,1.08.43,1.56,1.26,1.56s1.25-.48,1.25-1.56V3.48h1.37v6c0,2-1,2.7-2.62,2.7s-2.63-.72-2.63-2.7v-6Z"/><path d="M31.49,3.48h2.43c2.69,0,3,1.75,3,4.28s-.34,4.28-3,4.28H31.49ZM32.86,11H34c1.13,0,1.59-.74,1.6-3.25S35.17,4.52,34,4.52H32.86Z"/><path d="M38.17,3.49h4.63V4.64H39.53V7H42.6V8.17H39.53V10.9h3.36v1.15H38.16Z"/><path d="M49.22,3.49a10.12,10.12,0,0,0-1.37,5.38,10.44,10.44,0,0,0,1.37,5.39h-.92a9.15,9.15,0,0,1,0-10.77Z"/><path d="M50.24,6.56h-.9v-1h.9V5c0-1.22.59-1.61,1.64-1.61a5.58,5.58,0,0,1,.71,0v1h-.36c-.48,0-.7.18-.7.61V5.6h1.06v1H51.53v5.49H50.23Z"/><path d="M54.29,9v.37c0,.86.11,2,1.08,2s1-1.05,1-1.44h1.22a2.13,2.13,0,0,1-2.27,2.33c-1.06,0-2.36-.31-2.36-3.3,0-1.69.36-3.49,2.39-3.49,1.8,0,2.28,1.08,2.28,2.88V9Zm2.08-.89V7.76c0-.82-.26-1.44-1-1.44S54.29,7.14,54.29,8v.13Z"/><path d="M59.85,9v.37c0,.86.11,2,1.08,2s1-1.06,1-1.44h1.22a2.13,2.13,0,0,1-2.27,2.33c-1.06,0-2.36-.31-2.36-3.3,0-1.69.36-3.49,2.39-3.49,1.8,0,2.28,1.08,2.28,2.88V9Zm2.08-.89V7.76c0-.82-.26-1.44-1-1.44S59.85,7.14,59.85,8v.13Z"/><path d="M63.71,5.61h.89V3.77H65.9V5.61H67v1H65.89v3.85c0,.5.14.68.59.68a2.51,2.51,0,0,0,.47,0v1a4.27,4.27,0,0,1-1,.11c-.88,0-1.31-.24-1.31-1.56v-4h-.89Z"/><path d="M67,14.27a10.12,10.12,0,0,0,1.37-5.39A10.42,10.42,0,0,0,67,3.5h.92a9.16,9.16,0,0,1,0,10.77Z"/></g></g></svg>