<svg xmlns="http://www.w3.org/2000/svg" xmlns:xlink="http://www.w3.org/1999/xlink" viewBox="23.6 0 897.6 28.39">
  <defs>
    <style>.cls-1{fill:url(#linear-gradient);}.cls-2{fill:none;stroke:#000;stroke-miterlimit:10;}</style>
    <linearGradient id="linear-gradient" x1="92.32" y1="6.58" x2="920.72" y2="6.58" gradientUnits="userSpaceOnUse">
      <stop offset="0.033" stop-color="hsl(23, 88%, 51%)"/>
      <stop offset="0.066" stop-color="hsl(26, 88%, 52%)"/>
      <stop offset="0.126" stop-color="hsl(32, 88%, 54%)"/>
      <stop offset="0.19" stop-color="hsl(43, 88%, 53%)"/>
      <stop offset="0.253" stop-color="hsl(54, 88%, 45%)"/>
      <stop offset="0.316" stop-color="hsl(72, 88%, 42%)"/>
      <stop offset="0.38" stop-color="hsl(112, 88%, 41%)"/>
      <stop offset="0.59" stop-color="hsl(189, 88%, 44%)"/>
      <stop offset="0.79" stop-color="hsl(244, 88%, 57%)"/>
      <stop offset="1" stop-color="hsl(300, 88%, 43%)"/>
    </linearGradient>
  </defs>
  <title>Altitude Legend (m)</title>
  <g id="Layer_2" data-name="Layer 2">
    <g id="REDESIGN">
      <rect class="cls-1" x="92.32" width="828.4" height="13.17"/>
      <polyline class="cls-2" points="92.44 0 92.44 13.4 920.72 13.4 920.72 0"/>
      <path d="M90,22.36c0-1.87.13-4.37,2.42-4.36s2.42,2.28,2.42,4.37c0,1.8-.13,4.29-2.42,4.29S90,24.37,90,22.36Zm2.42,3.5c1.3,0,1.37-1.71,1.37-3.5s-.07-3.57-1.37-3.58S91,20.49,91,22.36,91.1,25.86,92.39,25.86Z"/>
      <path d="M882.64,19.52c1.07-.06,2.05-.19,2.1-1.39h.72v8.49h-1V20.24h-1.81Z"/>
      <path d="M892.85,26.62H888.1a4.53,4.53,0,0,1,1.83-3.48l.7-.59a2.51,2.51,0,0,0,1.13-2c0-.73-.32-1.52-1.24-1.52-1.31,0-1.34,1.36-1.34,1.83h-1.06c0-1.61.67-2.7,2.41-2.7a2.11,2.11,0,0,1,2.28,2.27,3.35,3.35,0,0,1-1.49,2.79l-1.2,1a2.64,2.64,0,0,0-.92,1.45h3.65Z"/>
      <path d="M896.69,22.49c0-1.87.13-4.37,2.42-4.37s2.42,2.28,2.42,4.37c0,1.8-.13,4.29-2.42,4.29S896.69,24.51,896.69,22.49Zm2.42,3.5c1.29,0,1.37-1.71,1.37-3.5s-.07-3.57-1.37-3.57-1.37,1.7-1.37,3.57S897.82,26,899.12,26Z"/>
      <path d="M902.46,22.49c0-1.87.13-4.37,2.42-4.37s2.42,2.28,2.42,4.37c0,1.8-.13,4.29-2.42,4.29S902.46,24.51,902.46,22.49Zm2.42,3.5c1.3,0,1.37-1.71,1.37-3.5s-.07-3.57-1.37-3.57-1.37,1.7-1.37,3.57S903.58,26,904.88,26Z"/>
      <path d="M908.21,22.49c0-1.87.13-4.37,2.42-4.37s2.42,2.28,2.42,4.37c0,1.8-.13,4.29-2.42,4.29S908.21,24.51,908.21,22.49Zm2.42,3.5c1.3,0,1.37-1.71,1.37-3.5s-.07-3.57-1.37-3.57-1.37,1.7-1.37,3.57S909.34,26,910.64,26Z"/>
      <path d="M916.72,22.785772h-2.64v-0.79h2.64v-2.66h0.79v2.64h2.64v0.81h-2.64v2.64h-0.79Z"/>
      <line class="cls-2" x1="735.39" x2="735.39" y2="14.19"/>
      <path d="M724.09,24.75A1.12,1.12,0,0,0,725.21,26c1.42,0,1.5-2.12,1.5-2.55v-.67h0a1.85,1.85,0,0,1-1.62.95c-1.48,0-2.22-1.09-2.22-2.69s.82-2.9,2.4-2.9c2.35,0,2.52,2.28,2.52,4,0,1.94-.12,4.63-2.58,4.63a2,2,0,0,1-2.15-2Zm1.15-5.83c-1.06,0-1.34,1.07-1.34,2s.22,2,1.34,2,1.34-1.07,1.34-2S726.3,18.92,725.25,18.92Z"/>
      <path d="M731.52,22.49c0-1.87.13-4.37,2.42-4.37s2.42,2.28,2.42,4.37c0,1.8-.13,4.29-2.42,4.29S731.52,24.51,731.52,22.49Zm2.42,3.5c1.29,0,1.37-1.71,1.37-3.5s-.07-3.57-1.37-3.57-1.37,1.7-1.37,3.57S732.65,26,733.95,26Z"/>
      <path d="M737.28,22.49c0-1.87.13-4.37,2.42-4.37s2.42,2.28,2.42,4.37c0,1.8-.13,4.29-2.42,4.29S737.28,24.51,737.28,22.49Zm2.42,3.5c1.29,0,1.37-1.71,1.37-3.5s-.07-3.57-1.37-3.57-1.37,1.7-1.37,3.57S738.41,26,739.71,26Z"/>
      <path d="M743,22.49c0-1.87.13-4.37,2.42-4.37s2.42,2.28,2.42,4.37c0,1.8-.13,4.29-2.42,4.29S743,24.51,743,22.49Zm2.42,3.5c1.3,0,1.37-1.71,1.37-3.5s-.07-3.57-1.37-3.57-1.37,1.7-1.37,3.57S744.17,26,745.47,26Z"/>
      <line class="cls-2" x1="565.55" x2="565.55" y2="14.19"/>
      <path d="M556.68,20.17a1.11,1.11,0,0,0-1.12-1.25c-1.42,0-1.5,2.11-1.5,2.55v.67h0a1.85,1.85,0,0,1,1.62-.95c1.48,0,2.22,1.09,2.22,2.69s-.82,2.9-2.4,2.9c-2.35,0-2.52-2.27-2.52-4,0-1.94.12-4.63,2.58-4.63a2,2,0,0,1,2.15,2ZM555.53,26c1.06,0,1.34-1.08,1.34-2s-.22-2-1.34-2-1.34,1.08-1.34,2S554.48,26,555.53,26Z"/>
      <path d="M561.69,22.49c0-1.87.13-4.37,2.42-4.37s2.42,2.28,2.42,4.37c0,1.8-.13,4.29-2.42,4.29S561.69,24.51,561.69,22.49Zm2.42,3.5c1.29,0,1.37-1.71,1.37-3.5s-.07-3.57-1.37-3.57-1.37,1.7-1.37,3.57S562.82,26,564.11,26Z"/>
      <path d="M567.45,22.49c0-1.87.13-4.37,2.42-4.37s2.42,2.28,2.42,4.37c0,1.8-.13,4.29-2.42,4.29S567.45,24.51,567.45,22.49Zm2.42,3.5c1.29,0,1.37-1.71,1.37-3.5s-.07-3.57-1.37-3.57-1.37,1.7-1.37,3.57S568.58,26,569.87,26Z"/>
      <path d="M573.21,22.49c0-1.87.13-4.37,2.42-4.37s2.42,2.28,2.42,4.37c0,1.8-.13,4.29-2.42,4.29S573.21,24.51,573.21,22.49Zm2.42,3.5c1.3,0,1.37-1.71,1.37-3.5s-.07-3.57-1.37-3.57-1.37,1.7-1.37,3.57S574.34,26,575.63,26Z"/>
      <line class="cls-2" x1="440.97" x2="440.97" y2="14.19"/>
      <path d="M430,21.8h.53c.9,0,1.3-.65,1.3-1.5s-.29-1.42-1.1-1.42c-1.12,0-1.22,1-1.22,1.66h-1.06c0-1.45.68-2.45,2.26-2.45a2,2,0,0,1,2.18,2.21,1.75,1.75,0,0,1-1.32,1.82v0a1.82,1.82,0,0,1,1.57,2c0,1.55-.78,2.63-2.41,2.63a2.26,2.26,0,0,1-2.41-2.36v-.11h1.06c0,.78.38,1.68,1.35,1.68.62,0,1.35-.31,1.36-1.75a1.42,1.42,0,0,0-1.54-1.62H430Z"/>
      <path d="M437,22.46c0-1.87.13-4.37,2.42-4.36s2.42,2.28,2.42,4.37c0,1.8-.13,4.29-2.42,4.29S437,24.48,437,22.46Zm2.42,3.5c1.3,0,1.37-1.71,1.37-3.5s-.07-3.57-1.37-3.57S438,20.59,438,22.46,438.08,26,439.38,26Z"/>
      <path d="M442.72,22.46c0-1.87.13-4.37,2.42-4.37s2.42,2.28,2.42,4.37c0,1.8-.13,4.29-2.42,4.29S442.72,24.48,442.72,22.46Zm2.42,3.5c1.3,0,1.37-1.71,1.37-3.5s-.07-3.57-1.37-3.58-1.37,1.7-1.37,3.57S443.84,26,445.14,26Z"/>
      <path d="M448.48,22.47c0-1.87.13-4.37,2.42-4.37s2.42,2.28,2.42,4.37c0,1.8-.13,4.29-2.42,4.29S448.48,24.48,448.48,22.47ZM450.9,26c1.29,0,1.37-1.71,1.37-3.5s-.07-3.57-1.37-3.58-1.37,1.7-1.37,3.57S449.6,26,450.9,26Z"/>
      <line class="cls-2" x1="384.19" x2="384.19" y2="14.19"/>
      <path d="M376.1,26.57h-4.75a4.53,4.53,0,0,1,1.84-3.48l.7-.59a2.51,2.51,0,0,0,1.13-2c0-.73-.32-1.52-1.24-1.52-1.31,0-1.34,1.35-1.34,1.83h-1.06c0-1.61.67-2.7,2.41-2.7a2.11,2.11,0,0,1,2.28,2.27,3.35,3.35,0,0,1-1.49,2.79l-1.2,1a2.64,2.64,0,0,0-.92,1.45h3.65Z"/>
      <path d="M382.92,18.08h1v5.58h1v.86h-1v2.05h-1V24.52h-3.07v-.95Zm-2.16,5.58h2.16V19.74h0Z"/>
      <path d="M385.7,22.45c0-1.87.13-4.37,2.42-4.36s2.42,2.28,2.42,4.37c0,1.8-.13,4.29-2.42,4.29S385.7,24.46,385.7,22.45Zm2.42,3.5c1.3,0,1.37-1.71,1.37-3.5s-.07-3.57-1.37-3.57-1.37,1.7-1.37,3.57S386.83,26,388.12,26Z"/>
      <path d="M391.46,22.45c0-1.87.13-4.37,2.42-4.36s2.42,2.28,2.42,4.37c0,1.8-.13,4.29-2.42,4.29S391.46,24.47,391.46,22.45Zm2.42,3.5c1.29,0,1.37-1.71,1.37-3.5s-.07-3.57-1.37-3.57-1.37,1.7-1.37,3.57S392.59,26,393.88,26Z"/>
      <line class="cls-2" x1="325.84" x2="325.84" y2="14.19"/>
      <path d="M313.66,19.46c1.07-.06,2.05-.19,2.1-1.39h.72v8.49h-1V20.18h-1.81Z"/>
      <path d="M323.44,22a1.76,1.76,0,0,1-1.23-1.81,2.17,2.17,0,0,1,4.34,0A1.76,1.76,0,0,1,325.31,22a2,2,0,0,1,1.5,2.18,2.44,2.44,0,1,1-4.87,0A2,2,0,0,1,323.44,22Zm.93,3.9c1,0,1.38-.75,1.38-1.75s-.4-1.75-1.38-1.75-1.38.76-1.38,1.75S323.39,25.93,324.37,25.93Zm-1.11-5.68c0,.79.33,1.39,1.12,1.39s1.12-.6,1.12-1.39-.35-1.39-1.12-1.39S323.26,19.45,323.26,20.25Z"/>
      <path d="M327.71,22.43c0-1.87.13-4.37,2.42-4.36s2.42,2.28,2.42,4.37c0,1.8-.13,4.29-2.42,4.29S327.71,24.45,327.71,22.43Zm2.42,3.5c1.29,0,1.37-1.71,1.37-3.5s-.07-3.57-1.37-3.58-1.37,1.7-1.37,3.57S328.84,25.94,330.13,25.94Z"/>
      <path d="M333.47,22.44c0-1.87.13-4.37,2.42-4.36s2.42,2.28,2.42,4.37c0,1.8-.13,4.29-2.42,4.29S333.47,24.45,333.47,22.44Zm2.42,3.5c1.3,0,1.37-1.71,1.37-3.5s-.07-3.57-1.37-3.57-1.37,1.7-1.37,3.57S334.6,25.94,335.89,25.94Z"/>
      <line class="cls-2" x1="267.49" x2="267.49" y2="14.19"/>
      <path d="M254.09,19.44c1.07-.06,2.05-.19,2.1-1.39h.72v8.49h-1V20.16h-1.81Z"/>
      <path d="M267.18,26.54h-4.75a4.53,4.53,0,0,1,1.84-3.48l.7-.59a2.51,2.51,0,0,0,1.13-2c0-.73-.32-1.52-1.24-1.52-1.31,0-1.34,1.36-1.34,1.83h-1.06c0-1.61.67-2.7,2.41-2.7a2.11,2.11,0,0,1,2.28,2.27,3.35,3.35,0,0,1-1.49,2.79l-1.2,1a2.64,2.64,0,0,0-.92,1.45h3.65Z"/>
      <path d="M268.14,22.42c0-1.87.13-4.37,2.42-4.36S273,20.33,273,22.42c0,1.8-.13,4.29-2.42,4.29S268.14,24.43,268.14,22.42Zm2.42,3.5c1.29,0,1.37-1.71,1.37-3.5s-.07-3.57-1.37-3.57-1.37,1.7-1.37,3.57S269.27,25.92,270.56,25.92Z"/>
      <path d="M273.9,22.42c0-1.87.13-4.37,2.42-4.36s2.42,2.28,2.42,4.37c0,1.8-.13,4.29-2.42,4.29S273.9,24.43,273.9,22.42Zm2.42,3.5c1.3,0,1.37-1.71,1.37-3.5s-.07-3.57-1.37-3.57S275,20.55,275,22.42,275,25.92,276.32,25.92Z"/>
      <line class="cls-2" x1="209.14" x2="209.14" y2="14.19"/>
      <path d="M203.71,20.07a1.11,1.11,0,0,0-1.12-1.25c-1.42,0-1.5,2.11-1.5,2.55v.67h0a1.85,1.85,0,0,1,1.62-.95c1.48,0,2.22,1.09,2.22,2.69s-.82,2.9-2.4,2.9c-2.35,0-2.52-2.27-2.52-4,0-1.94.12-4.63,2.58-4.63a2,2,0,0,1,2.15,2Zm-1.15,5.83c1.06,0,1.34-1.08,1.34-2s-.22-2-1.34-2-1.34,1.08-1.34,2S201.5,25.9,202.56,25.9Z"/>
      <path d="M205.83,22.4c0-1.87.13-4.37,2.42-4.36s2.42,2.28,2.42,4.37c0,1.8-.13,4.29-2.42,4.29S205.83,24.42,205.83,22.4Zm2.42,3.5c1.3,0,1.37-1.71,1.37-3.5s-.07-3.57-1.37-3.57-1.37,1.7-1.37,3.57S207,25.9,208.26,25.9Z"/>
      <path d="M211.59,22.4c0-1.87.13-4.37,2.42-4.37s2.42,2.28,2.42,4.37c0,1.8-.13,4.29-2.42,4.29S211.59,24.42,211.59,22.4Zm2.42,3.5c1.3,0,1.37-1.71,1.37-3.5s-.07-3.57-1.37-3.58-1.37,1.7-1.37,3.57S212.72,25.91,214,25.91Z"/>
      <line class="cls-2" x1="150.79" x2="150.79" y2="14.19"/>
      <path d="M143.79,21.72h.53c.9,0,1.3-.65,1.3-1.5s-.29-1.42-1.1-1.42c-1.12,0-1.22,1-1.22,1.66h-1.06c0-1.45.68-2.45,2.26-2.45a2,2,0,0,1,2.18,2.21A1.75,1.75,0,0,1,145.35,22v0a1.82,1.82,0,0,1,1.57,2c0,1.55-.78,2.63-2.41,2.63a2.26,2.26,0,0,1-2.41-2.36v-.11h1.06c0,.78.38,1.68,1.35,1.68.62,0,1.36-.31,1.36-1.75a1.42,1.42,0,0,0-1.54-1.62h-.54Z"/>
      <path d="M147.84,22.38c0-1.87.13-4.37,2.42-4.36s2.42,2.28,2.42,4.37c0,1.8-.13,4.29-2.42,4.29S147.84,24.4,147.84,22.38Zm2.42,3.5c1.3,0,1.37-1.71,1.37-3.5s-.07-3.57-1.37-3.57-1.37,1.7-1.37,3.57S149,25.89,150.27,25.89Z"/>
      <path d="M153.6,22.39c0-1.87.13-4.37,2.42-4.36s2.42,2.28,2.42,4.37c0,1.8-.13,4.29-2.42,4.29S153.6,24.4,153.6,22.39Zm2.42,3.5c1.3,0,1.37-1.71,1.37-3.5s-.07-3.57-1.37-3.57-1.37,1.7-1.37,3.57S154.73,25.89,156,25.89Z"/>
      <line class="cls-2" x1="120.82" x2="120.82" y2="14.19"/>
      <path d="M112.63,19.4c1.07-.06,2.05-.19,2.1-1.39h.72V26.5h-1V20.12h-1.81Z"/>
      <path d="M118.75,18.17h3.79v.94h-3l-.34,2.46,0,0a1.92,1.92,0,0,1,1.49-.63c1.27,0,2.13,1,2.13,2.79,0,1.58-.7,2.91-2.47,2.91a2.21,2.21,0,0,1-2.33-2.35h1.06c0,.44.17,1.56,1.29,1.56s1.39-1.34,1.39-2.21-.35-1.92-1.42-1.92a1.26,1.26,0,0,0-1.2.83l-.91,0Z"/>
      <path d="M123.8,22.37c0-1.87.13-4.37,2.42-4.36s2.42,2.28,2.42,4.37c0,1.8-.13,4.29-2.42,4.29S123.8,24.39,123.8,22.37Zm2.42,3.5c1.29,0,1.37-1.71,1.37-3.5s-.07-3.57-1.37-3.57-1.37,1.7-1.37,3.57S124.93,25.88,126.22,25.88Z"/>
      <path d="M26.040858,3.47h1.75l2.25,8.53h-1.44l-0.53,-2.1h-2.47l-0.57,2.1h-1.43Zm1.82,5.38,-1,-4.22v0l-1,4.22Z" />
      <path d="M30.490858,3.47h1.37v7.41h3.31V12h-4.68Z" />
      <path d="M36.280858,4.63h-2V3.47h5.32v1.16h-2V12h-1.33Z" />
      <path d="M40.370858,3.48h1.37V12h-1.37Z" />
      <path d="M44.500858,4.63h-2V3.48h5.41v1.15h-2V12h-1.42Z" />
      <path d="M49.910858,3.48v6.14c0,1.08,0.43,1.56,1.26,1.56,0.83,0,1.25,-0.48,1.25,-1.56V3.48h1.37v6c0,2,-1,2.7,-2.62,2.7,-1.62,0,-2.63,-0.72,-2.63,-2.7v-6Z" />
      <path d="M55.090858,3.48h2.43c2.69,0,3,1.75,3,4.28,0,2.53,-0.34,4.28,-3,4.28h-2.43Zm1.37,7.52h1.14c1.13,0,1.59,-0.74,1.6,-3.25,0.01,-2.51,-0.43,-3.24,-1.6,-3.24h-1.14Z" />
      <path d="M61.770858,3.48h4.63v1.16h-3.27V7h3.07v1.16h-3.07v2.74h3.36V12h-4.73Z" />
      <path d="M72.820858,3.49a10.13,10.13,0,0,0,-1.37,5.38,10.43,10.43,0,0,0,1.37,5.39h-0.92a9.15,9.15,0,0,1,0,-10.77Z" />
      <path d="M73.500858,5.6h1.22v0.75,0a1.81,1.81,0,0,1,1.55,-0.92,1.4,1.4,0,0,1,1.5,1,1.76,1.76,0,0,1,1.63,-1c0.91,0,1.57,0.47,1.57,1.72v4.91h-1.26V7.63c0,-0.84,-0.25,-1.16,-0.78,-1.16,-0.53,0,-1,0.42,-1,1.26v4.33h-1.33V7.63c0,-0.84,-0.25,-1.16,-0.79,-1.16,-0.54,0,-1,0.42,-1,1.26v4.33h-1.31Z" />
      <path d="M81.43,14.27A10.12,10.12,0,0,0,82.8,8.88,10.42,10.42,0,0,0,81.44,3.5h.92a9.16,9.16,0,0,1,0,10.77Z"/>
    </g>
  </g>
</svg>
