<?xml version="1.0" encoding="UTF-8"?>
<svg id="Layer_2" data-name="Layer 2" xmlns="http://www.w3.org/2000/svg" viewBox="0 0 27 27">
  <defs>
    <style>
      .cls-1 {
        fill: #fff;
        stroke-width: 0px;
      }
    </style>
  </defs>
  <path class="cls-1" d="m12.79,5.62c.47,0,.94,0,1.42,0,.02,0,.03.02.05.03.63.13,1.06.57,1.16,1.2.02.15.02.3.02.44,0,.09.03.12.11.15.19.06.37.14.56.22.11.04.22.15.32.13.1-.02.17-.14.26-.22.58-.54,1.42-.55,2-.01.27.25.53.51.78.78.33.36.43.78.35,1.26-.06.32-.22.58-.45.8-.18.17-.17.17-.07.39.08.17.15.35.22.52.1.25.09.25.36.25.66,0,1.18.33,1.41.9.04.11.07.22.11.33v1.42s-.03.06-.03.1c-.11.44-.36.77-.76.98-.27.15-.57.17-.87.16-.1,0-.14.02-.17.12-.06.18-.14.36-.21.54-.04.11-.14.22-.13.32.02.1.14.17.22.26.54.58.55,1.42.01,2-.25.27-.51.52-.77.77-.37.35-.82.45-1.31.35-.31-.07-.57-.23-.78-.47-.11-.12-.19-.15-.35-.06-.18.1-.37.17-.56.24-.23.09-.24.09-.24.34,0,.56-.2,1-.68,1.3-.17.11-.37.16-.56.23h-1.42s-.09-.03-.14-.05c-.39-.1-.69-.33-.9-.67-.17-.29-.21-.61-.19-.93,0-.1-.02-.14-.12-.17-.19-.06-.37-.14-.56-.22-.1-.04-.22-.14-.3-.12-.1.02-.18.15-.26.23-.58.54-1.42.55-2,.01-.27-.25-.54-.52-.79-.8-.32-.35-.42-.78-.34-1.24.06-.32.23-.58.45-.8.18-.17.17-.17.07-.39-.07-.15-.14-.31-.2-.47-.12-.3-.12-.3-.44-.31-.71-.01-1.27-.47-1.43-1.17,0-.02-.02-.05-.03-.07,0-.47,0-.94,0-1.42.01-.03.02-.06.03-.1.14-.56.49-.93,1.04-1.08.18-.05.39-.05.58-.05.1,0,.14-.03.17-.12.06-.18.11-.37.21-.53.16-.25.11-.4-.1-.62-.55-.55-.55-1.41,0-1.98.26-.28.53-.55.81-.8.34-.31.76-.41,1.22-.33.33.06.61.22.82.47.11.13.21.17.37.07.14-.09.3-.13.45-.2.33-.13.33-.13.34-.48.01-.62.41-1.15.99-1.35.08-.03.16-.05.25-.08Zm.71.92c-.16,0-.33,0-.49,0-.3,0-.52.22-.53.53,0,.22,0,.43,0,.65,0,.26-.12.42-.37.49-.48.13-.94.32-1.37.57-.23.13-.41.1-.6-.08-.15-.15-.3-.31-.46-.46-.23-.22-.53-.22-.76,0-.23.22-.45.45-.68.67-.23.24-.23.54,0,.78.14.15.29.29.43.44.19.19.22.38.08.61-.24.43-.43.88-.56,1.36-.07.25-.23.37-.49.38-.21,0-.42,0-.63,0-.31,0-.53.22-.54.53,0,.32,0,.65,0,.97,0,.31.22.53.53.54.21,0,.42,0,.63,0,.27,0,.43.12.5.37.13.48.32.93.56,1.36.13.24.11.42-.08.61-.15.15-.3.3-.44.45-.23.23-.22.53,0,.77.22.22.44.44.66.66.24.24.54.24.79,0,.14-.14.28-.28.43-.42.2-.19.38-.22.63-.09.43.24.87.43,1.34.56.26.07.38.23.38.5,0,.21,0,.42,0,.63,0,.3.22.52.52.53.33,0,.66,0,.99,0,.3,0,.52-.22.53-.53,0-.21,0-.42,0-.63,0-.27.12-.43.38-.51.47-.13.92-.32,1.35-.56.24-.14.43-.11.63.08.15.15.3.3.45.44.23.22.53.22.76,0,.23-.22.45-.45.68-.67.23-.23.23-.53,0-.77-.14-.15-.3-.3-.44-.45-.19-.19-.22-.38-.08-.61.24-.43.43-.88.56-1.36.07-.25.23-.37.49-.38.21,0,.42,0,.63,0,.31,0,.53-.22.54-.53,0-.32,0-.65,0-.97,0-.31-.22-.53-.53-.53-.21,0-.42,0-.63,0-.26,0-.43-.12-.5-.37-.13-.48-.32-.93-.56-1.36-.13-.24-.11-.42.08-.61.15-.15.3-.3.44-.45.22-.24.22-.54,0-.77-.22-.22-.44-.44-.66-.66-.24-.24-.54-.24-.79,0-.15.14-.29.29-.44.43-.19.18-.38.21-.6.08-.43-.25-.89-.44-1.37-.57-.24-.07-.36-.23-.37-.49,0-.22,0-.43,0-.65,0-.3-.22-.52-.53-.53-.16,0-.33,0-.49,0Z"/>
  <path class="cls-1" d="m10.74,13.39c0-1.46,1.18-2.65,2.64-2.65,1.47,0,2.66,1.19,2.65,2.65,0,1.46-1.19,2.65-2.65,2.64-1.46,0-2.65-1.18-2.65-2.65Zm2.65-1.94c-1.07,0-1.93.86-1.94,1.93,0,1.07.86,1.94,1.93,1.94,1.07,0,1.93-.86,1.94-1.93,0-1.07-.86-1.94-1.93-1.94Z"/>
</svg>