<?xml version="1.0" encoding="UTF-8" standalone="no"?>
<!-- Created with Inkscape (http://www.inkscape.org/) -->

<svg
   width="0.25622812in"
   height="0.25638881in"
   viewBox="0 0 6.5081942 6.5122759"
   version="1.1"
   id="svg1"
   xml:space="preserve"
   inkscape:version="1.3.2 (091e20e, 2023-11-25, custom)"
   sodipodi:docname="icons-and-images.svg"
   xmlns:inkscape="http://www.inkscape.org/namespaces/inkscape"
   xmlns:sodipodi="http://sodipodi.sourceforge.net/DTD/sodipodi-0.dtd"
   xmlns="http://www.w3.org/2000/svg"
   xmlns:svg="http://www.w3.org/2000/svg"><style
     id="style20">
.measure-arrow
{
}
.measure-label
{

}
.measure-line
{
}</style><sodipodi:namedview
     id="namedview1"
     pagecolor="#ffffff"
     bordercolor="#353535"
     borderopacity="1"
     inkscape:showpageshadow="0"
     inkscape:pageopacity="0"
     inkscape:pagecheckerboard="0"
     inkscape:deskcolor="#a8a8a8"
     inkscape:document-units="mm"
     inkscape:zoom="1.2689249"
     inkscape:cx="834.95881"
     inkscape:cy="397.9747"
     inkscape:window-width="3440"
     inkscape:window-height="1351"
     inkscape:window-x="3831"
     inkscape:window-y="-9"
     inkscape:window-maximized="1"
     inkscape:current-layer="layer1"
     showgrid="false"><inkscape:grid
       id="grid20"
       units="px"
       originx="-406.56441"
       originy="-65.736112"
       spacingx="0.26458334"
       spacingy="0.26458333"
       empcolor="#3f3fff"
       empopacity="0.25098039"
       color="#3f3fff"
       opacity="0.12549"
       empspacing="5"
       dotted="false"
       gridanglex="30"
       gridanglez="30"
       visible="false" /></sodipodi:namedview><defs
     id="defs1"><linearGradient
       id="linearGradient4"
       inkscape:swatch="gradient"><stop
         style="stop-color:#001e24;stop-opacity:1;"
         offset="0"
         id="stop8" /><stop
         style="stop-color:#003f4b;stop-opacity:1;"
         offset="0.09785938"
         id="stop9" /><stop
         style="stop-color:#002e37;stop-opacity:1;"
         offset="0.90366977"
         id="stop10" /><stop
         style="stop-color:#001e24;stop-opacity:1;"
         offset="1"
         id="stop11" /></linearGradient><style
       id="style1">.cls-1{fill:url(#linear-gradient);}.cls-2{fill:none;stroke:#000;stroke-miterlimit:10;}</style></defs><g
     inkscape:label="Layer 1"
     inkscape:groupmode="layer"
     id="layer1"
     transform="translate(-406.56442,-65.736115)"><path
       style="fill:#ffffff;stroke:none;stroke-width:0.125699;stroke-dasharray:none;stroke-opacity:1"
       d="m 409.40421,72.234309 c -0.078,-0.02517 -0.1227,-0.05186 -0.17689,-0.105495 -0.0842,-0.08317 -0.10461,-0.146331 -0.14133,-0.437511 -0.0184,-0.143626 -0.0354,-0.272604 -0.0388,-0.286615 -0.004,-0.01835 -0.0297,-0.03386 -0.0918,-0.05546 -0.0476,-0.01647 -0.13089,-0.05023 -0.18518,-0.07499 l -0.0987,-0.04501 -0.12198,0.09409 c -0.067,0.05174 -0.16886,0.129971 -0.22616,0.173823 -0.13657,0.104532 -0.21574,0.134765 -0.33345,0.127358 -0.0577,-0.0031 -0.10943,-0.01574 -0.14652,-0.0343 -0.0804,-0.04024 -0.57649,-0.533812 -0.62176,-0.618631 -0.0298,-0.05546 -0.0336,-0.07855 -0.0336,-0.178339 -5e-5,-0.144182 0.009,-0.163133 0.21396,-0.426735 0.0842,-0.108594 0.1587,-0.204687 0.16547,-0.213536 0.008,-0.01102 -0.002,-0.04703 -0.0324,-0.114646 -0.0244,-0.05421 -0.0586,-0.13748 -0.075,-0.185051 -0.0215,-0.06216 -0.0373,-0.08806 -0.0552,-0.09203 -0.0135,-0.0026 -0.14299,-0.02034 -0.28662,-0.03841 -0.29101,-0.03665 -0.35369,-0.05686 -0.43803,-0.141167 -0.0274,-0.02723 -0.0645,-0.08105 -0.0828,-0.119579 l -0.033,-0.07006 V 68.99076 68.589499 l 0.033,-0.07006 c 0.0185,-0.03854 0.0554,-0.09235 0.0828,-0.119582 0.0845,-0.08432 0.14702,-0.104523 0.43803,-0.141168 0.14363,-0.01809 0.27261,-0.03537 0.28662,-0.03841 0.0186,-0.0034 0.0335,-0.02988 0.0552,-0.09203 0.0168,-0.04757 0.0504,-0.130844 0.075,-0.185051 0.0309,-0.06761 0.0412,-0.103624 0.0324,-0.114647 -0.006,-0.009 -0.0813,-0.104942 -0.16547,-0.213536 -0.20448,-0.263575 -0.21401,-0.28255 -0.21401,-0.426733 0,-0.0953 0.005,-0.124315 0.0299,-0.171972 0.042,-0.08127 0.53679,-0.577501 0.61972,-0.621783 0.0554,-0.02961 0.0785,-0.03402 0.17834,-0.03404 0.14418,-3.4e-5 0.16315,0.0096 0.42673,0.213977 0.10868,0.08425 0.20469,0.158704 0.21354,0.165455 0.011,0.0086 0.0469,-0.0017 0.11465,-0.03269 0.0541,-0.02473 0.13747,-0.05845 0.18504,-0.07494 0.0623,-0.02165 0.088,-0.03707 0.0917,-0.05545 0.003,-0.014 0.0202,-0.142987 0.0387,-0.286613 0.0366,-0.290516 0.0578,-0.356415 0.14047,-0.439051 0.0266,-0.02659 0.0803,-0.06334 0.11949,-0.08171 l 0.071,-0.03335 h 0.40122 0.40129 l 0.07,0.03328 c 0.0388,0.01831 0.0924,0.05556 0.11959,0.0828 0.0844,0.08423 0.10452,0.147067 0.14133,0.438041 0.0184,0.143626 0.0355,0.272603 0.0387,0.286613 0.004,0.01837 0.0297,0.03382 0.0918,0.05539 0.0477,0.01646 0.12922,0.04958 0.18144,0.07361 0.0521,0.02404 0.10204,0.04101 0.11055,0.03773 0.008,-0.0028 0.10726,-0.07761 0.21924,-0.165138 0.26874,-0.210056 0.28426,-0.21795 0.42874,-0.217919 0.0998,2.6e-5 0.12287,0.0038 0.17831,0.03404 0.0848,0.04528 0.57842,0.541376 0.61866,0.621785 0.0188,0.03708 0.0308,0.08883 0.034,0.14649 0.007,0.117708 -0.0225,0.196879 -0.12739,0.333463 -0.0435,0.05729 -0.12206,0.159069 -0.1738,0.226166 l -0.0942,0.122 0.045,0.09866 c 0.0242,0.05427 0.0585,0.137586 0.0748,0.185157 0.0216,0.06241 0.037,0.08798 0.0555,0.09183 0.0135,0.0025 0.14279,0.02001 0.28614,0.03802 0.29059,0.03645 0.35354,0.05681 0.43852,0.141796 0.0274,0.02722 0.0645,0.08104 0.0829,0.119575 l 0.033,0.07006 v 0.394892 c 0,0.455555 -0.003,0.473972 -0.11113,0.587812 -0.0898,0.09499 -0.14179,0.112653 -0.44397,0.150988 -0.14309,0.01816 -0.27163,0.03537 -0.28565,0.0383 -0.0186,0.0033 -0.0335,0.02932 -0.0554,0.09181 -0.017,0.04757 -0.0498,0.129221 -0.0737,0.181441 -0.0236,0.05222 -0.0413,0.100929 -0.0388,0.108276 0.003,0.0076 0.0801,0.109615 0.17164,0.227293 0.19571,0.251638 0.22428,0.311082 0.21564,0.448436 -0.003,0.05767 -0.0157,0.109415 -0.0339,0.146495 -0.0411,0.08214 -0.53455,0.577218 -0.61866,0.620706 -0.0444,0.02308 -0.0905,0.03469 -0.15354,0.03882 -0.13369,0.0089 -0.19924,-0.02306 -0.45112,-0.219017 -0.11541,-0.08979 -0.216,-0.165587 -0.22353,-0.16848 -0.007,-0.0025 -0.0562,0.01441 -0.10862,0.03845 -0.0521,0.02403 -0.1339,0.05715 -0.18145,0.07361 -0.0624,0.02159 -0.088,0.03699 -0.0918,0.05539 -0.003,0.01401 -0.0202,0.14299 -0.0385,0.286615 -0.0368,0.290944 -0.0571,0.353596 -0.14151,0.438039 -0.0275,0.02723 -0.0811,0.06449 -0.11957,0.08281 l -0.0701,0.03328 -0.38217,0.0024 c -0.28392,0.0018 -0.39525,-0.0014 -0.43314,-0.01378 z m 0.5626,-1.894176 c 0.42755,-0.04768 0.80961,-0.29699 1.02642,-0.669769 0.0628,-0.10819 0.13102,-0.284194 0.15699,-0.40575 0.0296,-0.137573 0.0296,-0.410181 0,-0.547753 -0.10452,-0.48856 -0.47748,-0.892726 -0.95084,-1.029898 -0.49512,-0.14348 -1.00995,-0.0021 -1.3685,0.375372 -0.49514,0.521506 -0.4951,1.333709 1.1e-4,1.856944 0.12282,0.129786 0.23036,0.2084 0.39488,0.288721 0.25227,0.123146 0.47127,0.162205 0.74094,0.132133 z"
       id="path89-6" /></g></svg>
