<?xml version="1.0" encoding="UTF-8" standalone="no"?>
<!-- Created with Inkscape (http://www.inkscape.org/) -->

<svg
   width="0.22637685in"
   height="0.2263778in"
   viewBox="0 0 5.7499719 5.7499961"
   version="1.1"
   id="svg1"
   xml:space="preserve"
   inkscape:version="1.3.2 (091e20e, 2023-11-25, custom)"
   sodipodi:docname="icons-and-images.svg"
   xmlns:inkscape="http://www.inkscape.org/namespaces/inkscape"
   xmlns:sodipodi="http://sodipodi.sourceforge.net/DTD/sodipodi-0.dtd"
   xmlns="http://www.w3.org/2000/svg"
   xmlns:svg="http://www.w3.org/2000/svg"><style
     id="style20">
.measure-arrow
{
}
.measure-label
{

}
.measure-line
{
}</style><sodipodi:namedview
     id="namedview1"
     pagecolor="#ffffff"
     bordercolor="#353535"
     borderopacity="1"
     inkscape:showpageshadow="0"
     inkscape:pageopacity="0"
     inkscape:pagecheckerboard="0"
     inkscape:deskcolor="#a8a8a8"
     inkscape:document-units="mm"
     inkscape:zoom="1.2689249"
     inkscape:cx="834.95881"
     inkscape:cy="397.9747"
     inkscape:window-width="3440"
     inkscape:window-height="1351"
     inkscape:window-x="3831"
     inkscape:window-y="-9"
     inkscape:window-maximized="1"
     inkscape:current-layer="layer1"
     showgrid="false"><inkscape:grid
       id="grid20"
       units="px"
       originx="-409.29507"
       originy="-77.355833"
       spacingx="0.26458334"
       spacingy="0.26458333"
       empcolor="#3f3fff"
       empopacity="0.25098039"
       color="#3f3fff"
       opacity="0.12549"
       empspacing="5"
       dotted="false"
       gridanglex="30"
       gridanglez="30"
       visible="false" /></sodipodi:namedview><defs
     id="defs1"><linearGradient
       id="linearGradient4"
       inkscape:swatch="gradient"><stop
         style="stop-color:#001e24;stop-opacity:1;"
         offset="0"
         id="stop8" /><stop
         style="stop-color:#003f4b;stop-opacity:1;"
         offset="0.09785938"
         id="stop9" /><stop
         style="stop-color:#002e37;stop-opacity:1;"
         offset="0.90366977"
         id="stop10" /><stop
         style="stop-color:#001e24;stop-opacity:1;"
         offset="1"
         id="stop11" /></linearGradient><style
       id="style1">.cls-1{fill:url(#linear-gradient);}.cls-2{fill:none;stroke:#000;stroke-miterlimit:10;}</style></defs><g
     inkscape:label="Layer 1"
     inkscape:groupmode="layer"
     id="layer1"
     transform="translate(-409.29507,-77.355835)"><path
       style="fill:#ffffff;stroke:none;stroke-width:0.127458;stroke-dasharray:none;stroke-opacity:1"
       d="m 413.53147,82.24636 c 0,-0.279242 -0.002,-0.278487 0.30211,-0.277166 0.30439,0.0012 0.61807,5.43e-4 0.91317,-7.67e-4 0.29509,-0.0012 0.30802,0.01258 0.29509,0.282258 -0.0127,0.269663 -10e-6,0.280396 -10e-6,0.562933 0,0.292212 0,0.292212 -0.30428,0.292212 h -0.904 c -0.30209,0 -0.30209,0 -0.30209,-0.283562 z m -2.18091,-2.258093 c -0.0653,-0.02177 -0.1285,-0.08686 -0.13992,-0.144227 -0.006,-0.03204 0.009,-0.148635 0.0562,-0.402249 0.0357,-0.196428 0.065,-0.363235 0.0649,-0.370681 -4e-5,-0.0073 -0.13319,-0.138533 -0.29591,-0.291305 -0.31829,-0.298846 -0.32448,-0.307158 -0.30424,-0.408814 0.007,-0.04208 0.067,-0.115735 0.10865,-0.136819 0.0172,-0.0088 0.76647,-0.118354 0.80989,-0.118526 0.005,-2e-5 0.0914,-0.154407 0.19152,-0.343083 0.12798,-0.24109 0.1937,-0.352261 0.2212,-0.374062 0.0747,-0.05917 0.18445,-0.05651 0.26034,0.0062 0.0343,0.02842 0.0857,0.115776 0.21956,0.37395 0.0963,0.185278 0.18073,0.33687 0.1881,0.33687 0.006,0 0.18713,0.02391 0.39946,0.05315 0.29098,0.04004 0.39601,0.05894 0.42649,0.07669 0.087,0.05069 0.12311,0.179309 0.0723,0.257806 -0.0129,0.02029 -0.15012,0.154301 -0.30443,0.297796 l -0.28055,0.260911 0.0648,0.356156 c 0.0356,0.195888 0.0648,0.373812 0.0647,0.395391 -4.2e-4,0.11699 -0.14063,0.212634 -0.26046,0.177634 -0.0278,-0.0082 -0.19864,-0.08831 -0.37977,-0.178225 -0.18111,-0.08991 -0.33573,-0.163489 -0.34352,-0.163489 -0.007,0 -0.1641,0.07456 -0.34725,0.165706 -0.28205,0.14034 -0.40206,0.19282 -0.43544,0.190409 -0.003,-2.51e-4 -0.0289,-0.0082 -0.0568,-0.01727 z m 0.0593,0.825862 c -10e-4,-0.279239 -0.002,-0.278488 0.30214,-0.277165 0.30436,0.0012 0.61804,5.42e-4 0.91313,-7.67e-4 0.29509,-0.0012 0.30804,0.01258 0.29509,0.282256 -0.0127,0.269664 0.008,1.705095 0.008,1.987633 0,0.292212 0,0.292212 -0.30427,0.292212 h -0.90377 c -0.30211,0 -0.30082,-5e-6 -0.30211,-0.283564 z m -2.1145,0.854033 c -0.002,-0.279237 -0.002,-0.278488 0.3021,-0.277166 0.30438,0.0012 0.61809,5.42e-4 0.91317,-7.66e-4 0.29508,-0.0012 0.30802,0.01258 0.29508,0.282256 -0.0127,0.269665 0.008,0.851062 0.008,1.1336 0,0.292212 0,0.292212 -0.30427,0.292212 h -0.90401 c -0.30208,0 -0.29981,-1e-5 -0.30208,-0.283564 z"
       id="path1-8"
       sodipodi:nodetypes="zzzzssszzcccsscssssssssssscccsssssccssssssssssssssssss" /></g></svg>
