<?xml version="1.0" encoding="UTF-8" standalone="no"?>
<!-- Created with Inkscape (http://www.inkscape.org/) -->

<svg
   width="0.25909424in"
   height="0.27306589in"
   viewBox="0 0 6.5809937 6.9358737"
   version="1.1"
   id="svg1"
   xml:space="preserve"
   inkscape:version="1.3.2 (091e20e, 2023-11-25, custom)"
   sodipodi:docname="icons-and-images.svg"
   xmlns:inkscape="http://www.inkscape.org/namespaces/inkscape"
   xmlns:sodipodi="http://sodipodi.sourceforge.net/DTD/sodipodi-0.dtd"
   xmlns="http://www.w3.org/2000/svg"
   xmlns:svg="http://www.w3.org/2000/svg"><style
     id="style20">
.measure-arrow
{
}
.measure-label
{

}
.measure-line
{
}</style><sodipodi:namedview
     id="namedview1"
     pagecolor="#ffffff"
     bordercolor="#353535"
     borderopacity="1"
     inkscape:showpageshadow="0"
     inkscape:pageopacity="0"
     inkscape:pagecheckerboard="0"
     inkscape:deskcolor="#a8a8a8"
     inkscape:document-units="mm"
     inkscape:zoom="1.2689249"
     inkscape:cx="834.95881"
     inkscape:cy="397.9747"
     inkscape:window-width="3440"
     inkscape:window-height="1351"
     inkscape:window-x="3831"
     inkscape:window-y="-9"
     inkscape:window-maximized="1"
     inkscape:current-layer="layer1"
     showgrid="false"><inkscape:grid
       id="grid20"
       units="px"
       originx="-420.5864"
       originy="-76.844065"
       spacingx="0.26458334"
       spacingy="0.26458333"
       empcolor="#3f3fff"
       empopacity="0.25098039"
       color="#3f3fff"
       opacity="0.12549"
       empspacing="5"
       dotted="false"
       gridanglex="30"
       gridanglez="30"
       visible="false" /></sodipodi:namedview><defs
     id="defs1"><linearGradient
       id="linearGradient4"
       inkscape:swatch="gradient"><stop
         style="stop-color:#001e24;stop-opacity:1;"
         offset="0"
         id="stop8" /><stop
         style="stop-color:#003f4b;stop-opacity:1;"
         offset="0.09785938"
         id="stop9" /><stop
         style="stop-color:#002e37;stop-opacity:1;"
         offset="0.90366977"
         id="stop10" /><stop
         style="stop-color:#001e24;stop-opacity:1;"
         offset="1"
         id="stop11" /></linearGradient><style
       id="style1">.cls-1{fill:url(#linear-gradient);}.cls-2{fill:none;stroke:#000;stroke-miterlimit:10;}</style></defs><g
     inkscape:label="Layer 1"
     inkscape:groupmode="layer"
     id="layer1"
     transform="translate(-420.5864,-76.844063)"><path
       id="rect92-78"
       style="fill:#ffffff;fill-opacity:1;stroke:none;stroke-width:0.0736041;stroke-dasharray:none;stroke-opacity:1"
       d="m 426.23227,76.845975 -0.5971,0.004 c -0.13421,7.4e-4 -0.14433,0.0115 -0.14338,0.15295 l 0.006,0.57095 -0.60096,5.2e-4 c -0.14267,1.2e-4 -0.14455,0.0167 -0.1445,0.15004 l 2.4e-4,0.58667 c 7e-5,0.13358 0.008,0.12128 0.1482,0.12115 l 0.60274,-5.1e-4 0.007,0.58163 c 0.002,0.14402 0.0462,0.14619 0.17269,0.1454 l 0.52989,-0.003 c 0.1281,-7.4e-4 0.18308,-0.005 0.1821,-0.14971 l -0.006,-0.57433 0.59781,-5.2e-4 c 0.14303,-1.2e-4 0.14773,0.004 0.14761,-0.12745 l -4.4e-4,-0.59434 c -9e-5,-0.13192 -0.003,-0.1362 -0.14717,-0.13607 l -0.60349,5.1e-4 -0.007,-0.60514 c -0.002,-0.14189 -0.0152,-0.12609 -0.14404,-0.12207 z m -2.54727,2.1882 c -0.0845,0.0373 -1.81455,0.8222 -2.9584,1.38032 -0.063,0.0308 -0.14254,0.0564 -0.1401,0.11116 0.004,0.0548 0.0762,0.0904 0.14439,0.12996 0.57455,0.33348 1.46059,0.73084 1.46059,0.73084 0,0 -0.87193,0.41082 -1.45979,0.70475 -0.0812,0.0406 -0.14785,0.0626 -0.1452,0.11371 0.004,0.0511 0.0733,0.075 0.14955,0.11224 0.97879,0.4785 1.89652,0.90662 2.88276,1.37049 0.31421,0.12348 0.18431,0.12776 0.53114,-0.0157 0.5383,-0.22236 2.86405,-1.34556 2.86405,-1.34556 0,0 0.1547,-0.0676 0.15309,-0.1182 -0.003,-0.0506 -0.0947,-0.0867 -0.16204,-0.12003 -0.49939,-0.24763 -0.96581,-0.463 -1.47226,-0.6968 0,0 0.88348,-0.45135 1.48696,-0.75082 0.0698,-0.0347 0.15008,-0.067 0.14762,-0.11161 -0.004,-0.0446 -0.16787,-0.11493 -0.16787,-0.11493 0,0 -2.92086,-1.34356 -3.00717,-1.38643 -0.0863,-0.0429 -0.22284,-0.0307 -0.30732,0.007 z m 0.30035,1.097 c 0.0578,0.0278 0.80666,0.372 0.80666,0.372 0.17269,0.0662 0.11732,0.0677 -0.0255,0.13358 0,0 -0.61413,0.28285 -0.71733,0.33076 -0.1032,0.0479 -0.29257,0.0402 -0.37368,-0.005 -0.0811,-0.0453 -0.73441,-0.34629 -0.7705,-0.36127 -0.0515,-0.0214 -0.0515,-0.0686 0.0114,-0.10134 0.0629,-0.0328 0.76136,-0.35472 0.81663,-0.37582 0.0722,-0.0276 0.17496,-0.0246 0.2524,0.007 0.0774,0.0319 0,0 0,0 z m -0.59389,1.80862 c 0,0 0.22724,0.12957 0.35705,0.16459 0.1298,0.035 0.15689,0.028 0.23886,6.3e-4 0.0819,-0.0274 0.34518,-0.16035 0.34518,-0.16035 l 0.47632,0.22051 c 0.061,0.027 0.073,0.0637 0.009,0.11093 -0.16941,0.11968 -0.56029,0.27498 -0.76712,0.36457 -0.13154,0.057 -0.18046,0.0618 -0.3035,0.01 -0.19859,-0.0836 -0.73237,-0.3362 -0.81406,-0.38496 -0.0816,-0.0488 -0.0577,-0.0795 -0.0142,-0.10602 0.0435,-0.0265 0.47531,-0.21987 0.47531,-0.21987 z"
       sodipodi:nodetypes="csscsssscsssscsssscssczzscszsszczscszczzczcczzszszzzccssszzcczzcc" /></g></svg>
