<?xml version="1.0" encoding="UTF-8" standalone="no"?>
<!-- Created with Inkscape (http://www.inkscape.org/) -->

<svg
   width="0.23178737in"
   height="0.23214753in"
   viewBox="0 0 5.8873992 5.8965473"
   version="1.1"
   id="svg1"
   xml:space="preserve"
   inkscape:version="1.3.2 (091e20e, 2023-11-25, custom)"
   sodipodi:docname="icons-and-images.svg"
   xmlns:inkscape="http://www.inkscape.org/namespaces/inkscape"
   xmlns:sodipodi="http://sodipodi.sourceforge.net/DTD/sodipodi-0.dtd"
   xmlns="http://www.w3.org/2000/svg"
   xmlns:svg="http://www.w3.org/2000/svg"><style
     id="style20">
.measure-arrow
{
}
.measure-label
{

}
.measure-line
{
}</style><sodipodi:namedview
     id="namedview1"
     pagecolor="#ffffff"
     bordercolor="#353535"
     borderopacity="1"
     inkscape:showpageshadow="0"
     inkscape:pageopacity="0"
     inkscape:pagecheckerboard="0"
     inkscape:deskcolor="#a8a8a8"
     inkscape:document-units="mm"
     inkscape:zoom="1.2689249"
     inkscape:cx="834.95881"
     inkscape:cy="397.9747"
     inkscape:window-width="3440"
     inkscape:window-height="1351"
     inkscape:window-x="3831"
     inkscape:window-y="-9"
     inkscape:window-maximized="1"
     inkscape:current-layer="layer1"
     showgrid="false"><inkscape:grid
       id="grid20"
       units="px"
       originx="-407.45057"
       originy="-94.083838"
       spacingx="0.26458334"
       spacingy="0.26458333"
       empcolor="#3f3fff"
       empopacity="0.25098039"
       color="#3f3fff"
       opacity="0.12549"
       empspacing="5"
       dotted="false"
       gridanglex="30"
       gridanglez="30"
       visible="false" /></sodipodi:namedview><defs
     id="defs1"><linearGradient
       id="linearGradient4"
       inkscape:swatch="gradient"><stop
         style="stop-color:#001e24;stop-opacity:1;"
         offset="0"
         id="stop8" /><stop
         style="stop-color:#003f4b;stop-opacity:1;"
         offset="0.09785938"
         id="stop9" /><stop
         style="stop-color:#002e37;stop-opacity:1;"
         offset="0.90366977"
         id="stop10" /><stop
         style="stop-color:#001e24;stop-opacity:1;"
         offset="1"
         id="stop11" /></linearGradient><style
       id="style1">.cls-1{fill:url(#linear-gradient);}.cls-2{fill:none;stroke:#000;stroke-miterlimit:10;}</style></defs><g
     inkscape:label="Layer 1"
     inkscape:groupmode="layer"
     id="layer1"
     transform="translate(-407.45056,-94.083839)"><path
       style="fill:#ffffff;fill-opacity:1;stroke:none;stroke-width:0.188945;stroke-dasharray:none;stroke-opacity:1"
       d="m 410.09967,99.966167 c -0.31869,-0.03209 -0.69611,-0.14152 -0.9904,-0.287171 -0.60175,-0.297821 -1.0529,-0.746591 -1.34948,-1.342327 -0.219,-0.439937 -0.32031,-1.097028 -0.30827,-1.61027 0.005,-0.235507 0.004,-0.328717 0.14132,-0.328717 h 0.48043 c 0.1968,0 0.16461,0.12989 0.18023,0.317961 0.0157,0.188068 0.0342,0.480629 0.0764,0.717785 0.13207,0.74253 0.67551,1.344585 1.39206,1.5931 0.23263,0.08068 0.39422,0.106132 0.67378,0.106132 0.19864,0 0.2699,-0.0054 0.38806,-0.0291 0.28686,-0.05763 0.53899,-0.161419 0.77219,-0.31787 0.47398,-0.31798 0.7949,-0.798739 0.90744,-1.359362 0.0425,-0.21175 0.0425,-0.570272 0,-0.782021 -0.11279,-0.561535 -0.43209,-1.039967 -0.90744,-1.359251 -0.3186,-0.214009 -0.67952,-0.332366 -1.06816,-0.350263 -0.31931,-0.01471 -0.60532,0.04032 -0.93743,0.18041 l -0.10217,0.04312 0.31418,0.356241 c 0.12317,0.139649 0.0249,0.226066 -0.12966,0.228207 -0.46427,0.0063 -0.93102,0.0077 -1.39476,-0.0045 -0.12592,-0.0037 -0.1279,-0.01223 -0.12839,-0.123385 -0.002,-0.463713 1.3e-4,-0.907091 0.007,-1.370587 0.0183,-0.154095 0.14348,-0.197058 0.22107,-0.129517 l 0.4994,0.434745 0.124,-0.07486 c 0.80209,-0.484366 1.85421,-0.513399 2.734,-0.07544 0.5924,0.294885 1.03952,0.742047 1.33449,1.334511 0.34763,0.698286 0.40322,1.484133 0.15733,2.224557 -0.0632,0.1903 -0.18589,0.456171 -0.28118,0.609335 -0.18113,0.291119 -0.46143,0.602811 -0.71663,0.796839 -0.60749,0.461876 -1.35161,0.675881 -2.09128,0.601409 z m -0.40411,-3.586364 c -2.2e-4,-0.455501 0.10394,-0.429802 0.50527,-0.16965 l 1.29009,0.836356 c 0.18314,0.118709 0.14893,0.208203 0,0.30812 l -1.29009,0.73906 c -0.53555,0.30681 -0.50084,0.322526 -0.50178,-0.107659 z"
       id="path2-0"
       sodipodi:nodetypes="ssscsszsssssssssscsssscscsssssssscsscssc" /></g></svg>
