<svg xmlns="http://www.w3.org/2000/svg" id="replay" x="0" y="0" version="1.1" viewBox="0 0 29 29" xml:space="preserve">
  <path fill="#FFFFFF" d="M15.56 26a11.584 11.584 0 0 1-8.132-3.368.999.999 0 1 1 1.414-1.414A9.567 9.567 0 0 0 15.56 24c5.238 0 9.5-4.262 9.5-9.5S20.798 5 15.56 5c-5.044 0-9.303 4.101-9.493 9.142-.021.552-.498.972-1.037.962a1 1 0 0 1-.961-1.037C4.299 7.964 9.454 3 15.56 3c6.341 0 11.5 5.159 11.5 11.5S21.9 26 15.56 26z"></path>
  <path fill="#FFFFFF" d="M12.997 19.54a1.663 1.663 0 0 1-1.664-1.664v-6.753c0-.597.322-1.151.842-1.447a1.667 1.667 0 0 1 1.674.018l5.672 3.376c.509.303.813.837.813 1.43s-.304 1.127-.813 1.43l-5.671 3.376a1.67 1.67 0 0 1-.853.234zm.336-7.825v5.57l4.679-2.785-4.679-2.785zM4.718 15.402a1 1 0 0 1-.875-.515l-1.776-3.2a1 1 0 1 1 1.748-.971l1.291 2.326 2.326-1.291a1.001 1.001 0 0 1 .97 1.749l-3.2 1.776a.988.988 0 0 1-.484.126z"></path>
</svg>
