<?xml version="1.0" encoding="iso-8859-1"?>
<!-- Uploaded to: SVG Repo, www.svgrepo.com, Generator: SVG Repo Mixer Tools -->
<svg x="0" y="0" fill="#FFFFFF" version="1.1" id="ruler" xmlns="http://www.w3.org/2000/svg" xmlns:xlink="http://www.w3.org/1999/xlink"
         viewBox="0 0 512 512" xml:space="preserve">
<g>
        <g>
                <path d="M418.364,0L0,418.364L93.636,512L512,93.636L418.364,0z M22.153,418.364l16.443-16.443l54.875,54.875l11.076-11.076
                        l-54.875-54.875l10.939-10.939l16.477,16.477l11.076-11.077l-16.477-16.477l10.939-10.939l27.485,27.485l11.077-11.076
                        l-27.485-27.485l10.939-10.939l16.477,16.477l11.076-11.077l-16.477-16.477l10.939-10.939l54.874,54.875l11.076-11.077
                        l-54.875-54.875l10.939-10.939l16.477,16.477l11.076-11.076l-16.476-16.474l10.939-10.939l27.485,27.485l11.076-11.076
                        l-27.485-27.485l10.939-10.939l16.477,16.477l11.076-11.076l-16.477-16.477l10.939-10.939l54.874,54.875l11.077-11.076
                        l-54.874-54.875l10.939-10.939l16.477,16.477l11.076-11.076l-16.477-16.477l10.939-10.939l27.485,27.485l11.076-11.076
                        L269.83,170.69l10.939-10.939l16.477,16.477l11.077-11.076l-16.477-16.477l10.939-10.939l54.875,54.875l11.077-11.076
                        l-54.875-54.874l10.939-10.939l16.477,16.477l11.077-11.076l-16.477-16.477l10.939-10.939l27.485,27.485l11.076-11.076
                        l-27.489-27.487l10.939-10.939l16.477,16.477l11.077-11.076l-16.478-16.477l10.939-10.939l54.875,54.875l11.076-11.076
                        l-54.875-54.875l16.443-16.443l71.482,71.482L93.636,489.847L22.153,418.364z"/>
        </g>
</g>
</svg>
