<?xml version="1.0" encoding="UTF-8" standalone="no"?>
<!-- Created with Inkscape (http://www.inkscape.org/) -->

<svg
   width="0.25973383in"
   height="0.26051173in"
   viewBox="0 0 6.5972392 6.6169978"
   version="1.1"
   id="svg1"
   xml:space="preserve"
   inkscape:version="1.3.2 (091e20e, 2023-11-25, custom)"
   sodipodi:docname="icons-and-images.svg"
   xmlns:inkscape="http://www.inkscape.org/namespaces/inkscape"
   xmlns:sodipodi="http://sodipodi.sourceforge.net/DTD/sodipodi-0.dtd"
   xmlns="http://www.w3.org/2000/svg"
   xmlns:svg="http://www.w3.org/2000/svg"><style
     id="style20">
.measure-arrow
{
}
.measure-label
{

}
.measure-line
{
}</style><sodipodi:namedview
     id="namedview1"
     pagecolor="#ffffff"
     bordercolor="#353535"
     borderopacity="1"
     inkscape:showpageshadow="0"
     inkscape:pageopacity="0"
     inkscape:pagecheckerboard="0"
     inkscape:deskcolor="#a8a8a8"
     inkscape:document-units="mm"
     inkscape:zoom="0.96459612"
     inkscape:cx="805.51848"
     inkscape:cy="515.24155"
     inkscape:window-width="3440"
     inkscape:window-height="1351"
     inkscape:window-x="3831"
     inkscape:window-y="-9"
     inkscape:window-maximized="1"
     inkscape:current-layer="layer1"
     showgrid="false"><inkscape:grid
       id="grid20"
       units="px"
       originx="-405.7137"
       originy="-102.64039"
       spacingx="0.26458334"
       spacingy="0.26458333"
       empcolor="#3f3fff"
       empopacity="0.25098039"
       color="#3f3fff"
       opacity="0.12549"
       empspacing="5"
       dotted="false"
       gridanglex="30"
       gridanglez="30"
       visible="false" /></sodipodi:namedview><defs
     id="defs1"><linearGradient
       id="linearGradient4"
       inkscape:swatch="gradient"><stop
         style="stop-color:#001e24;stop-opacity:1;"
         offset="0"
         id="stop8" /><stop
         style="stop-color:#003f4b;stop-opacity:1;"
         offset="0.09785938"
         id="stop9" /><stop
         style="stop-color:#002e37;stop-opacity:1;"
         offset="0.90366977"
         id="stop10" /><stop
         style="stop-color:#001e24;stop-opacity:1;"
         offset="1"
         id="stop11" /></linearGradient><style
       id="style1">.cls-1{fill:url(#linear-gradient);}.cls-2{fill:none;stroke:#000;stroke-miterlimit:10;}</style></defs><g
     inkscape:label="Layer 1"
     inkscape:groupmode="layer"
     id="layer1"
     transform="translate(-405.71371,-102.64039)"><g
       id="g95-7-7"
       style="display:inline;stroke:none"
       transform="matrix(1,0,0,1.0311065,151.35011,49.158509)"
       inkscape:export-filename="icons\width-lever.svg"
       inkscape:export-xdpi="481.2619"
       inkscape:export-ydpi="481.2619"><path
         d="m 260.50731,55.981078 c -0.12536,0.238787 -0.12853,0.242457 -0.23879,0.238787 -0.0793,-0.0027 -0.35865,0 -0.47756,0 -0.12318,0 -0.1196,0 0,-0.238787 l 0.2902,-0.579404 h -0.58852 c -0.2864,0 -0.2864,-0.01463 -0.2864,-0.336183 0,-0.32154 0,-0.336194 0.2864,-0.336194 h 0.58852 l -0.2902,-0.556786 c -0.12445,-0.238787 -0.12491,-0.238787 -1.7e-4,-0.238787 h 0.47757 c 0.10793,0 0.10975,0.0012 0.23895,0.238787 0,0 0.39865,0.719917 0.42947,0.78944 0.0308,0.06952 0.0333,0.104321 0,0.167955 -0.0333,0.06363 -0.42947,0.851172 -0.42947,0.851172 z"
         id="text1-3-8-4-3-9-6-4-97-3"
         style="font-size:42.6667px;line-height:1.25;letter-spacing:0px;word-spacing:0px;white-space:pre;fill:#ffffff;stroke:none;stroke-width:0.11459;stroke-dasharray:none"
         aria-label="âœ"
         sodipodi:nodetypes="cssscscccsszszzc" /><path
         d="m 254.8644,56.075164 c 0.13841,0.263639 0.1419,0.26769 0.26364,0.263639 0.0876,-0.0028 0.39599,0 0.52729,0 0.13598,0 0.13205,0 0,-0.263639 l -0.32042,-0.639711 h 0.64978 c 0.3162,0 0.3162,-0.01615 0.3162,-0.371173 0,-0.355007 0,-0.371185 -0.3162,-0.371185 h -0.64978 l 0.32042,-0.614736 c 0.13739,-0.263642 0.13789,-0.263642 1.7e-4,-0.263642 h -0.52727 c -0.11917,0 -0.12117,0.0013 -0.26383,0.263642 0,0 -0.44013,0.794845 -0.47417,0.871604 -0.034,0.07676 -0.037,0.11518 0,0.185437 0.0369,0.07026 0.47417,0.939764 0.47417,0.939764 z"
         id="text1-3-8-4-3-9-6-4-9-6-4"
         style="font-size:42.6667px;line-height:1.25;letter-spacing:0px;word-spacing:0px;white-space:pre;display:inline;fill:#ffffff;stroke:none;stroke-width:0.126516;stroke-dasharray:none"
         aria-label="âœ"
         sodipodi:nodetypes="cssscscccsszszzc" /><rect
         style="fill:#ffffff;fill-opacity:1;stroke:none;stroke-width:0.160255;stroke-dasharray:none;stroke-opacity:1"
         id="rect1-8-9-3-0-2-6-0-3"
         width="6.4173779"
         height="1.1378037"
         x="51.868435"
         y="-258.33069"
         ry="0.11463586"
         transform="rotate(90)" /></g></g></svg>
